<svg width="24" height="24" viewBox="0 0 24 24" fill="none" xmlns="http://www.w3.org/2000/svg">
<path d="M7.97999 16.587H5.12799C3.22699 16.112 1.76099 14.614 1.76099 12.628C1.76099 10.984 2.82199 9.483 4.26199 8.912C4.24499 8.756 4.23599 8.576 4.23599 8.393C4.23599 5.57 6.52499 3.283 9.34799 3.283C10.953 3.283 12.386 4.024 13.321 5.183L13.329 5.193C13.869 4.915 14.507 4.752 15.183 4.752C15.187 4.752 15.191 4.752 15.194 4.752H15.193C17.429 4.752 19.365 6.735 19.444 8.953L11.81 5.804L7.97899 8.111V16.586L7.97999 16.587Z" fill="#393842"/>
<path d="M22.238 18.695L11.72 20.7L11.768 13.305L22.238 15.246V18.695ZM11.756 6.772L22.238 10.717V14.667L11.774 12.438L11.756 6.772Z" fill="#393842"/>
<path d="M11.7741 12.437L8.9231 13.762V8.496L11.7561 6.771L11.7741 12.437ZM21.7631 14.211L12.2581 12.042V7.319L21.7631 10.824V14.21V14.211ZM16.5351 12.517L17.4861 12.777V9.698L16.5351 9.365V12.516V12.517ZM15.5851 9.063L14.6341 8.72V12.012L15.5851 12.28V9.063ZM18.4361 13.038L19.3731 13.285L19.3891 10.35L18.4361 10.032V13.038ZM12.7331 11.523L13.6841 11.768V8.408L12.7331 8.095V11.523ZM21.2881 11L20.3371 10.667V13.535L21.2881 13.795V10.999V11ZM12.2581 14.092V20.191L21.7631 18.448V15.557L12.2581 14.092ZM12.7331 19.478V14.785L13.6841 14.904V19.32L12.7331 19.478ZM15.5851 18.998L14.6341 19.171V15.022L15.5851 15.161V18.998ZM16.5351 18.861V15.26L17.4861 15.379V18.686L16.5351 18.861ZM19.3871 18.361L18.4361 18.523V15.498L19.3871 15.637V18.361ZM21.3201 18.054L20.3371 18.224V15.736L21.2551 15.851L21.3201 18.054Z" fill="#393842"/>
<path d="M9.88589 12.346L9.41089 12.624V8.879L9.88589 8.623V12.346ZM10.8319 8.079L10.3579 8.406L10.3569 12.044L10.8319 11.784V8.079Z" fill="#393842"/>
<path d="M8.92303 19.011L8.90503 14.689L11.767 13.305L11.783 20.718L8.92303 19.011Z" fill="#393842"/>
<path d="M9.82802 18.995L9.39502 18.775V15.125L9.82802 14.93V18.994V18.995ZM10.848 14.471L10.376 14.678L10.358 19.283L10.849 19.537V14.471H10.848Z" fill="#393842"/>
<path d="M21.279 11.308L12.735 8.442L12.749 8.072L21.279 11.007V11.309V11.308ZM21.255 15.849L12.748 14.782V15.151L21.263 16.158L21.255 15.849ZM10.832 8.569V8.102L9.45204 8.868L9.43304 9.26L10.832 8.569ZM9.39704 15.398L10.846 14.873L10.849 14.47L9.39404 15.123L9.39704 15.397V15.398Z" fill="#393842"/>
</svg>
