<svg width="836" height="836" viewBox="0 0 836 836" fill="none" xmlns="http://www.w3.org/2000/svg">
<rect width="836" height="836" fill="white"/>
<rect opacity="0.15" x="141" y="304" width="406" height="386" fill="#1D2F44"/>
<rect x="175" y="364" width="15" height="6" fill="white"/>
<rect x="207" y="364" width="53" height="6" fill="white"/>
<rect x="175" y="460" width="15" height="6" fill="white"/>
<rect x="266" y="460" width="93" height="6" fill="white"/>
<rect x="175" y="494" width="15" height="6" fill="white"/>
<rect x="266" y="494" width="93" height="6" fill="white"/>
<rect x="175" y="428" width="15" height="6" fill="white"/>
<rect x="207" y="428" width="95" height="6" fill="white"/>
<rect x="175" y="526" width="15" height="6" fill="white"/>
<rect x="324" y="526" width="70" height="6" fill="white"/>
<rect x="175" y="396" width="15" height="6" fill="white"/>
<rect x="207" y="396" width="95" height="6" fill="white"/>
<rect x="175" y="558" width="15" height="6" fill="white"/>
<rect x="260" y="558" width="86" height="6" fill="white"/>
<rect x="175" y="590" width="15" height="6" fill="white"/>
<rect x="260" y="590" width="175" height="6" fill="white"/>
<rect x="175" y="622" width="15" height="6" fill="white"/>
<rect x="313" y="622" width="78" height="6" fill="white"/>
<rect x="366" y="558" width="41" height="6" fill="white"/>
<g opacity="0.7" filter="url(#filter0_d)">
<rect x="245" y="196" width="406" height="384" fill="white"/>
</g>
<g filter="url(#filter1_d)">
<rect x="288" y="138" width="406" height="398" fill="#1D2F44"/>
</g>
<circle cx="645" cy="361" r="81" fill="#1D2F44"/>
<rect x="574" y="365" width="90" height="14" fill="#FFB053"/>
<rect x="561" y="314" width="111" height="14" fill="white"/>
<rect x="334" y="200" width="15" height="6" fill="white"/>
<rect x="366" y="200" width="53" height="6" fill="white"/>
<rect x="334" y="296" width="15" height="6" fill="white"/>
<rect x="425" y="296" width="93" height="6" fill="white"/>
<rect x="334" y="330" width="15" height="6" fill="white"/>
<rect x="425" y="330" width="93" height="6" fill="white"/>
<rect x="334" y="264" width="15" height="6" fill="white"/>
<rect x="366" y="264" width="95" height="6" fill="#FFB053"/>
<rect x="334" y="362" width="15" height="6" fill="white"/>
<rect x="483" y="362" width="70" height="6" fill="#FFB053"/>
<rect x="334" y="232" width="15" height="6" fill="white"/>
<rect x="366" y="232" width="95" height="6" fill="#4C9AFF"/>
<rect x="334" y="394" width="15" height="6" fill="white"/>
<rect x="419" y="394" width="86" height="6" fill="#4C9AFF"/>
<rect x="334" y="426" width="15" height="6" fill="white"/>
<rect x="419" y="426" width="175" height="6" fill="#4C9AFF"/>
<rect x="334" y="458" width="15" height="6" fill="white"/>
<rect x="472" y="458" width="78" height="6" fill="white"/>
<rect x="525" y="394" width="41" height="6" fill="#FFB053"/>
<g filter="url(#filter2_d)">
<path d="M763.148 449.224L723.089 409.166C732.705 394.673 738.333 377.321 738.333 358.667C738.333 308.122 697.212 267 646.667 267C596.122 267 555 308.122 555 358.667C555 409.212 596.122 450.333 646.667 450.333C665.321 450.333 682.673 444.705 697.166 435.089L737.215 475.147C740.799 478.732 746.602 478.732 750.177 475.147L763.138 462.186C766.723 458.602 766.732 452.799 763.148 449.224ZM573.333 358.667C573.333 318.232 606.233 285.333 646.667 285.333C687.101 285.333 720 318.232 720 358.667C720 399.101 687.101 432 646.667 432C606.233 432 573.333 399.101 573.333 358.667Z" fill="#4C9AFF"/>
</g>
<circle cx="185" cy="581" r="81" fill="#E8EAEC"/>
<rect x="169" y="532" width="38" height="14" fill="white"/>
<rect x="169" y="576" width="38" height="14" fill="white"/>
<rect x="169" y="614" width="38" height="14" fill="white"/>
<g filter="url(#filter3_d)">
<path d="M72.6835 670.224L112.742 630.166C103.126 615.673 97.4977 598.321 97.4977 579.667C97.4977 529.122 138.619 488 189.164 488C239.709 488 280.831 529.122 280.831 579.667C280.831 630.212 239.709 671.333 189.164 671.333C170.51 671.333 153.158 665.705 138.665 656.089L98.616 696.147C95.0319 699.732 89.2294 699.732 85.6544 696.147L72.6927 683.186C69.1086 679.602 69.0994 673.799 72.6835 670.224ZM262.498 579.667C262.498 539.232 229.599 506.333 189.164 506.333C148.73 506.333 115.831 539.232 115.831 579.667C115.831 620.101 148.73 653 189.164 653C229.599 653 262.498 620.101 262.498 579.667Z" fill="#4C9AFF"/>
</g>
<defs>
<filter id="filter0_d" x="215" y="176" width="466" height="444" filterUnits="userSpaceOnUse" color-interpolation-filters="sRGB">
<feFlood flood-opacity="0" result="BackgroundImageFix"/>
<feColorMatrix in="SourceAlpha" type="matrix" values="0 0 0 0 0 0 0 0 0 0 0 0 0 0 0 0 0 0 127 0"/>
<feOffset dy="10"/>
<feGaussianBlur stdDeviation="15"/>
<feColorMatrix type="matrix" values="0 0 0 0 0 0 0 0 0 0 0 0 0 0 0 0 0 0 0.15 0"/>
<feBlend mode="normal" in2="BackgroundImageFix" result="effect1_dropShadow"/>
<feBlend mode="normal" in="SourceGraphic" in2="effect1_dropShadow" result="shape"/>
</filter>
<filter id="filter1_d" x="268" y="124" width="446" height="438" filterUnits="userSpaceOnUse" color-interpolation-filters="sRGB">
<feFlood flood-opacity="0" result="BackgroundImageFix"/>
<feColorMatrix in="SourceAlpha" type="matrix" values="0 0 0 0 0 0 0 0 0 0 0 0 0 0 0 0 0 0 127 0"/>
<feOffset dy="6"/>
<feGaussianBlur stdDeviation="10"/>
<feColorMatrix type="matrix" values="0 0 0 0 0 0 0 0 0 0 0 0 0 0 0 0 0 0 0.25 0"/>
<feBlend mode="normal" in2="BackgroundImageFix" result="effect1_dropShadow"/>
<feBlend mode="normal" in="SourceGraphic" in2="effect1_dropShadow" result="shape"/>
</filter>
<filter id="filter2_d" x="545" y="267" width="230.831" height="231.836" filterUnits="userSpaceOnUse" color-interpolation-filters="sRGB">
<feFlood flood-opacity="0" result="BackgroundImageFix"/>
<feColorMatrix in="SourceAlpha" type="matrix" values="0 0 0 0 0 0 0 0 0 0 0 0 0 0 0 0 0 0 127 0"/>
<feOffset dy="11"/>
<feGaussianBlur stdDeviation="5"/>
<feColorMatrix type="matrix" values="0 0 0 0 0 0 0 0 0 0 0 0 0 0 0 0 0 0 0.25 0"/>
<feBlend mode="normal" in2="BackgroundImageFix" result="effect1_dropShadow"/>
<feBlend mode="normal" in="SourceGraphic" in2="effect1_dropShadow" result="shape"/>
</filter>
<filter id="filter3_d" x="50" y="478" width="250.831" height="250.836" filterUnits="userSpaceOnUse" color-interpolation-filters="sRGB">
<feFlood flood-opacity="0" result="BackgroundImageFix"/>
<feColorMatrix in="SourceAlpha" type="matrix" values="0 0 0 0 0 0 0 0 0 0 0 0 0 0 0 0 0 0 127 0"/>
<feOffset dy="10"/>
<feGaussianBlur stdDeviation="10"/>
<feColorMatrix type="matrix" values="0 0 0 0 0 0 0 0 0 0 0 0 0 0 0 0 0 0 0.12 0"/>
<feBlend mode="normal" in2="BackgroundImageFix" result="effect1_dropShadow"/>
<feBlend mode="normal" in="SourceGraphic" in2="effect1_dropShadow" result="shape"/>
</filter>
</defs>
</svg>
