<svg width="24" height="24" viewBox="0 0 24 24" fill="none" xmlns="http://www.w3.org/2000/svg">
<path fill-rule="evenodd" clip-rule="evenodd" d="M12 2C17.523 2 22 6.477 22 12C22 17.523 17.523 22 12 22C6.477 22 2 17.523 2 12C2 6.477 6.477 2 12 2ZM8.602 13.869H6.034L5.546 15.334H3.988L6.634 8.225H7.991L10.652 15.334H9.094L8.601 13.869H8.602ZM6.429 12.682H8.206L7.312 10.021L6.429 12.682ZM12.781 12.828V15.333H11.316V8.224H14.089C14.623 8.224 15.092 8.322 15.498 8.517C15.904 8.712 16.215 8.99 16.433 9.35C16.651 9.71 16.76 10.119 16.76 10.578C16.76 11.275 16.522 11.824 16.045 12.226C15.568 12.628 14.908 12.829 14.065 12.829H12.781V12.828ZM12.781 11.642H14.09C14.477 11.642 14.773 11.551 14.976 11.369C15.179 11.187 15.281 10.926 15.281 10.588C15.281 10.24 15.178 9.958 14.973 9.743C14.768 9.528 14.485 9.417 14.123 9.411H12.78V11.642H12.781ZM19.324 15.333H17.859V8.224H19.324V15.333Z" fill="#393842"/>
</svg>
