<svg width="24" height="24" viewBox="0 0 24 24" fill="none" xmlns="http://www.w3.org/2000/svg">
<path d="M11.7301 3.39C8.29711 3.39 5.50511 6.282 5.50511 9.839C5.50511 13.394 8.29711 16.287 11.7301 16.287C15.1631 16.287 17.9551 13.395 17.9551 9.839C17.9551 6.283 15.1631 3.391 11.7301 3.391V3.39ZM11.7301 17.676C7.55711 17.676 4.16211 14.16 4.16211 9.838C4.16211 5.516 7.55711 2 11.7301 2C15.9031 2 19.2981 5.516 19.2981 9.838C19.2981 14.16 15.9031 17.676 11.7301 17.676ZM19.8381 22H4.70311V20.378H19.8381V22Z" fill="#393842"/>
</svg>
