<svg width="24" height="24" viewBox="0 0 24 24" fill="none" xmlns="http://www.w3.org/2000/svg">
<path d="M8.89696 19.252L11.606 21.961H16.002C16.538 21.961 16.968 21.525 16.968 20.995V10.84L8.89596 18.917C8.80096 19.007 8.80096 19.157 8.89596 19.252H8.89696Z" fill="#393842"/>
<path d="M2.00293 7.962V12.358L4.71193 15.067C4.80693 15.162 4.95693 15.162 5.04693 15.067L13.1239 6.99H2.96893C2.43793 6.99 2.00293 7.426 2.00293 7.961V7.962Z" fill="#393842"/>
<path fill-rule="evenodd" clip-rule="evenodd" d="M12.1681 3.039L5.6481 13.014C5.4281 13.354 5.4731 13.8 5.7581 14.086L9.9341 18.262C10.2191 18.547 10.6701 18.593 11.0061 18.372L20.9811 11.847C21.6171 11.431 21.9981 10.72 21.9981 9.964V3.009C21.9981 2.463 21.5521 2.018 21.0071 2.018H14.0571C13.2961 2.018 12.5901 2.404 12.1691 3.04L12.1681 3.039ZM16.9941 9.408C18.3661 9.408 19.4781 8.296 19.4781 6.924C19.4781 5.552 18.3661 4.44 16.9941 4.44C15.6221 4.44 14.5101 5.552 14.5101 6.924C14.5101 8.296 15.6221 9.408 16.9941 9.408Z" fill="#393842"/>
<path d="M3.46993 20.59V17.065H2.00293V21.982H6.99493V20.59H3.46993Z" fill="#393842"/>
<path d="M12.5481 10.252L7.23706 15.563L8.46206 16.788L13.7731 11.477L12.5481 10.252Z" fill="#393842"/>
<path d="M7.40395 17.845L8.45895 16.79L7.23396 15.565L6.17896 16.62L7.40395 17.845Z" fill="#393842"/>
</svg>
