<svg width="24" height="24" viewBox="0 0 24 24" fill="none" xmlns="http://www.w3.org/2000/svg">
<path d="M14.2329 12C14.2329 13.315 13.1669 14.381 11.8519 14.381C10.5369 14.381 9.47095 13.315 9.47095 12C9.47095 10.685 10.5369 9.619 11.8519 9.619C13.1669 9.619 14.2329 10.685 14.2329 12Z" fill="#393842"/>
<path d="M11.8509 2C7.19093 2 3.27593 5.187 2.16593 9.5C2.15593 9.535 2.14993 9.576 2.14893 9.618C2.14893 9.88 2.36193 10.094 2.62493 10.094H6.65793C6.65793 10.094 6.65893 10.094 6.65993 10.094C6.85093 10.094 7.01493 9.981 7.08893 9.818L7.08993 9.815C7.08993 9.815 7.09593 9.804 7.09893 9.798C7.92993 8.005 9.74592 6.76 11.8529 6.76C14.7459 6.76 17.0919 9.105 17.0919 11.998C17.0919 14.891 14.7469 17.236 11.8539 17.236C9.74693 17.236 7.93193 15.991 7.09993 14.198C7.09693 14.192 7.09093 14.181 7.09093 14.181C7.01393 14.012 6.84493 13.902 6.65893 13.902H2.62593C2.36293 13.902 2.14993 14.115 2.14993 14.378C2.14993 14.42 2.15593 14.461 2.16693 14.5L2.16593 14.497C3.27593 18.81 7.19193 21.997 11.8509 21.997C17.3739 21.996 21.8599 17.52 21.8599 11.997C21.8599 6.474 17.3829 1.997 11.8599 1.997L11.8509 2Z" fill="#393842"/>
</svg>
