<svg width="24" height="24" viewBox="0 0 24 24" fill="none" xmlns="http://www.w3.org/2000/svg">
<path d="M9.90294 13.837C7.38794 12.995 5.68794 10.698 5.67294 8.121C5.65594 4.9 8.12894 2 12.0499 2C15.9709 2 18.3439 4.9 18.3259 8.121C18.3119 10.697 16.6119 12.995 14.0969 13.837C14.0969 13.837 14.0699 12.019 15.3209 10.804C15.9729 10.052 16.3569 9.068 16.3569 8.087C16.3569 5.784 14.4249 3.91 12.0499 3.91C9.67494 3.91 7.64294 5.784 7.64294 8.087C7.64294 9.069 7.94394 10.051 8.59694 10.804C9.63294 12.048 9.90294 13.837 9.90294 13.837Z" fill="#393842"/>
<path d="M18.7349 18.537C18.7349 18.248 18.4799 17.789 18.4799 17.789C18.3259 17.763 18.0389 17.707 17.4779 17.485C16.4989 16.997 17.0919 16.615 17.1649 16.578C17.1649 16.578 16.7829 16.372 16.7259 16.345C16.6139 16.291 16.2569 16.139 16.2569 16.139C16.1479 16.154 15.4209 16.2 14.8319 16.033C14.3439 15.904 14.1419 15.65 14.1429 15.564C14.1429 15.564 13.6429 15.488 13.4999 15.469C13.4979 15.493 13.4409 15.734 13.4409 15.734C13.3669 16.088 13.5689 16.448 13.9109 16.549C14.7509 16.797 15.3859 17.206 15.5689 17.707C15.9399 18.722 14.3829 19.714 12.0159 19.714C9.64792 19.714 8.09092 18.722 8.46092 17.707C8.63992 17.218 9.24992 16.817 10.0589 16.567C10.4169 16.457 10.6299 16.082 10.5529 15.71L10.5029 15.469C10.4079 15.481 9.63692 15.595 9.63692 15.595C9.64392 15.678 9.57192 15.903 8.99892 16.075C8.69392 16.17 8.34292 16.225 7.97892 16.225C7.83292 16.225 7.68892 16.216 7.54792 16.199L7.56492 16.201C7.56492 16.201 7.21992 16.36 7.10592 16.415C6.99392 16.472 6.68092 16.657 6.68092 16.657C6.83892 16.732 7.18892 17.153 6.60392 17.484C6.50492 17.54 5.87792 17.899 5.44592 17.92C5.44592 17.92 5.26392 18.246 5.26392 18.684C5.41592 18.684 6.35592 18.734 6.62492 19.2C6.92392 19.716 6.45592 20.163 6.19692 20.363C6.19692 20.363 6.58892 20.659 6.74092 20.751C6.90192 20.84 7.41492 21.103 7.41492 21.103C7.77992 20.945 8.58592 20.645 9.69392 20.874C10.8019 21.103 11.0719 21.707 11.1579 21.973C11.1579 21.973 11.7269 22.01 12.2239 21.996C12.6339 21.982 13.0009 21.961 13.3659 21.932L13.2809 21.937C13.3089 21.799 13.7529 20.909 14.8309 20.75C15.9089 20.591 16.5419 20.831 16.9069 20.972C16.9069 20.972 17.3919 20.705 17.5199 20.601C17.6509 20.503 18.0049 20.204 18.0049 20.204C17.7329 20.014 17.2679 19.652 17.4769 19.074C17.6149 18.688 18.4999 18.536 18.7339 18.536L18.7349 18.537Z" fill="#393842"/>
<path d="M14.1031 9.957C13.3661 10.56 12.7611 11.779 12.7251 13.109C12.6861 14.586 12.7871 16.296 12.8491 17.166C13.6371 17.278 14.1911 17.543 14.1911 17.851C14.1911 18.26 13.2101 18.734 12.0001 18.734C10.7901 18.734 9.80909 18.26 9.80909 17.85C9.80909 17.542 10.3621 17.278 11.1521 17.165C11.2141 16.295 11.3131 14.585 11.2751 13.108C11.2381 11.778 10.6361 10.558 9.89709 9.956C9.30109 9.47 8.93109 8.778 8.93909 8.014C8.95109 6.557 10.1441 5.264 11.9521 5.264C13.7601 5.264 15.0491 6.558 15.0611 8.014C15.0681 8.778 14.6991 9.469 14.1031 9.956V9.957Z" fill="#393842"/>
</svg>
