<svg width="24" height="24" viewBox="0 0 24 24" fill="none" xmlns="http://www.w3.org/2000/svg">
<path d="M2 2H22V22H2V2ZM15.615 7.902L17.304 11.861L15.625 15.797L16.96 16.367L18.905 11.873L16.98 7.321L15.616 7.902H15.615ZM9.894 14.72C8.237 14.72 7.128 13.435 7.128 11.84C7.128 10.335 8.12 8.96 9.868 8.96C11.212 8.96 12.021 9.764 12.217 10.828H14.422C14.174 8.739 12.517 7.065 9.842 7.065C6.723 7.065 4.975 9.349 4.975 11.84C4.975 14.383 6.815 16.615 9.868 16.615C12.426 16.615 14.083 15.045 14.435 13.125H12.191C11.93 14.02 11.121 14.721 9.894 14.721V14.72Z" fill="#393842"/>
</svg>
