<svg width="24" height="24" viewBox="0 0 24 24" fill="none" xmlns="http://www.w3.org/2000/svg">
<path d="M5.11993 19.48C5.34993 19.68 5.66993 19.68 5.91993 19.48C6.21993 19.21 6.27993 18.82 6.10993 18.36C5.99993 18.07 5.83993 17.96 5.53993 17.96C5.39993 17.98 5.21993 17.96 5.08993 18.09C4.71993 18.45 4.73993 19.14 5.11993 19.47V19.48ZM11.7299 21.94L12.2799 22C12.4299 22.01 12.4999 21.98 12.5299 21.84C12.5899 21.62 12.6299 21.41 12.6699 21.18C12.8499 20.35 13.0799 19.55 13.2999 18.73C13.3299 18.57 13.3199 18.52 13.1699 18.48L10.7699 17.89C10.6299 17.86 10.5499 17.8 10.5799 17.64C10.7699 17.02 10.8599 16.38 11.0799 15.76C11.1025 15.6954 11.1403 15.6371 11.1899 15.59C11.4099 15.43 11.5499 15.25 11.5299 14.96C11.5099 14.75 11.6299 14.61 11.8199 14.52C12.1899 14.34 12.5699 14.12 12.9199 13.92C13.2199 13.75 13.4399 13.52 13.6099 13.22C14.2799 11.95 14.8399 10.62 15.6599 9.42C15.7299 9.32 15.7799 9.22 15.8699 9.12C16.4099 8.58 16.8899 7.98 17.4699 7.5C17.6599 7.34 17.6999 7.13 17.6999 6.91C17.6999 6.65 17.5499 6.47 17.3799 6.27C17.2299 6.09 17.0599 5.93 16.7999 5.97C16.7383 5.96571 16.6776 5.95223 16.6199 5.93C16.6499 5.86 16.7199 5.83 16.7799 5.8C17.4899 5.32 18.1799 4.88 18.8999 4.42L21.4699 2.76C21.5699 2.68 21.6299 2.63 21.5099 2.53C21.2599 2.22 21.2599 2.22 21.0299 2.38L13.8299 6.86C13.6199 6.99 13.6199 6.99 13.5099 6.76C13.2799 6.2 13.1399 5.63 12.9599 5.06C12.9199 4.93 12.9599 4.84 13.0599 4.77C13.6599 4.29 14.2099 3.76 14.7599 3.21C14.9899 3.01 15.1199 2.76 15.1599 2.45C15.2099 2.1 14.9599 1.92 14.6399 2.04L14.1699 2.26C12.7432 3.01144 11.2373 3.60174 9.67993 4.02C9.58993 4.04 9.49993 4.08 9.42993 3.99C9.26993 3.79 9.03993 3.69 8.83993 3.56C8.80993 3.53 8.74993 3.53 8.71993 3.53C8.49993 3.58 8.28993 3.63 8.16993 3.83C7.81993 4.31 7.41993 4.75 7.10993 5.26C6.75993 5.85 6.40993 6.44 6.00993 6.99C5.93993 7.09 5.89993 7.12 5.81993 6.99L4.49993 4.65C4.34993 4.39 4.19993 4.15 4.02993 3.93C3.82993 3.67 3.59993 3.55 3.27993 3.59C3.22993 3.59 3.14993 3.57 3.13993 3.65C3.08993 3.88 2.98993 4.12 3.00993 4.35C3.07993 4.92 3.18993 5.5 3.30993 6.05C3.55993 7.01 3.82993 7.95 4.10993 8.9C4.38993 9.83 4.70993 10.74 5.00993 11.67C5.01993 11.77 5.07993 11.81 4.96993 11.88C4.82993 11.96 4.58993 12.01 4.57993 12.16C4.55993 12.3 4.67993 12.48 4.73993 12.62C4.80993 12.78 4.83993 12.96 4.91993 12.99C5.03993 13.04 5.14993 12.89 5.25993 12.81C5.35993 12.76 5.39993 12.76 5.42993 12.86C5.70993 13.47 5.96993 14.08 6.22993 14.71C6.25993 14.8 6.27993 14.9 6.23993 14.99C6.05993 15.47 5.93993 15.99 5.83993 16.49C5.82993 16.63 5.76993 16.63 5.63993 16.59C5.05993 16.46 4.48993 16.29 3.90993 16.15C3.64993 16.07 3.64993 16.07 3.60993 16.35L3.24993 20.54C3.22993 20.66 3.24993 20.72 3.37993 20.74C3.79993 20.78 4.18993 20.84 4.59993 20.92L11.7399 21.92V21.94H11.7299ZM13.1599 7.11C13.1699 7.16 13.1699 7.21 13.1199 7.25C12.9399 7.35 12.7699 7.47 12.5899 7.59C12.5699 7.61 12.5499 7.61 12.4899 7.63L12.4299 7.52L11.2999 6.22C11.2499 6.16 11.1999 6.12 11.2999 6.03C11.6699 5.83 11.9599 5.48 12.3599 5.31C12.4599 5.25 12.4999 5.25 12.5299 5.36C12.7799 5.93 12.9599 6.54 13.1599 7.11ZM10.1099 4.47C10.6399 4.27 11.1599 4.05 11.6899 3.84C12.4599 3.54 13.1599 3.11 13.8699 2.74L14.0899 2.61C14.1599 2.58 14.2099 2.49 14.2999 2.54C14.3999 2.6 14.3699 2.7 14.3699 2.83C14.3799 2.95 14.3199 3.05 14.1899 3.16C13.4499 3.82 12.7099 4.46 11.9199 5.08C11.6199 5.33 11.2399 5.44 10.9099 5.64C10.8299 5.67 10.7999 5.64 10.7699 5.58L9.99993 4.61C9.89993 4.51 10.0199 4.51 10.0999 4.47H10.1099ZM5.55993 11.34C4.97993 9.57 4.37993 7.81 3.89993 6C3.78993 5.59 3.73993 5.14 3.66993 4.72C3.63993 4.59 3.70993 4.52 3.79993 4.49C3.90993 4.43 3.90993 4.56 3.96993 4.61C4.73993 5.7 5.27993 6.93 5.92993 8.1C6.11993 8.45 6.33993 8.78 6.52993 9.13C6.56993 9.2 6.59993 9.25 6.71993 9.22C6.81993 9.17 6.79993 9.11 6.77993 9.02C6.67993 8.67 6.50993 8.33 6.38993 7.99C6.32993 7.86 6.32993 7.78 6.38993 7.65C6.66993 7.05 7.07993 6.55 7.38993 5.97C7.66993 5.46 8.03993 4.99 8.32993 4.47C8.46993 4.21 8.80993 4.17 9.02993 4.37C9.15993 4.5 9.28993 4.67 9.39993 4.85C9.75993 5.45 10.2599 5.9 10.7599 6.38C11.0999 6.72 11.4599 7.06 11.8099 7.36C11.9399 7.46 11.9499 7.63 12.0199 7.76C12.0399 7.81 12.0199 7.84 11.9799 7.86L11.8999 7.95C11.5999 8.2 11.3199 8.17 10.9599 7.99C10.26 7.63632 9.63253 7.15469 9.10993 6.57C8.85993 6.39 8.85993 6.39 8.74993 6.68C8.64993 6.98 8.56993 7.26 8.44993 7.52C8.39993 7.62 8.45993 7.72 8.53993 7.8C8.62993 7.88 8.66993 8 8.81993 7.97C8.88993 7.95 8.92993 7.92 8.92993 7.87C8.95993 7.7 9.02993 7.52 9.04993 7.33C9.59993 7.79 10.2099 8.16 10.7999 8.54L10.2099 8.88L5.72993 11.4C5.61993 11.5 5.57993 11.5 5.52993 11.35H5.55993V11.34ZM6.06993 12.5C6.00993 12.4 6.02993 12.35 6.13993 12.27C7.93993 11.17 9.73993 10.04 11.5399 8.92C11.6399 8.86 11.7299 8.9 11.8099 8.86C12.1299 8.79 12.4399 8.7 12.7099 8.52L12.7799 8.48C12.9799 8.02 13.4199 7.88 13.7999 7.7C14.6499 7.31 15.5299 6.96 16.2699 6.38C16.4599 6.24 16.6399 6.29 16.7699 6.4C16.8999 6.48 16.9899 6.66 16.9399 6.86C16.8799 7.09 16.7999 7.29 16.5999 7.46C15.8699 8.15 15.2999 8.91 14.7599 9.76C14.2799 10.51 13.8199 11.26 13.4599 12.08C13.3899 12.24 13.2799 12.38 13.1599 12.51C12.6613 13.0745 12.0521 13.5306 11.3699 13.85C11.3045 13.8806 11.2485 13.9284 11.208 13.9882C11.1675 14.0481 11.144 14.1178 11.1399 14.19C11.1299 14.31 11.0899 14.44 11.0899 14.56C11.0699 14.89 10.9599 15.16 10.6899 15.36C10.5999 15.44 10.5999 15.55 10.5699 15.63L9.99993 17.54V17.58C9.99993 17.61 9.99993 17.65 9.96993 17.67C9.86993 17.68 9.79993 17.67 9.73993 17.61C8.79993 17.4 7.87993 17.16 6.93993 16.91C6.83993 16.9 6.70993 16.87 6.60993 16.84C6.42993 16.82 6.40993 16.74 6.49993 16.59C6.61993 16 6.77993 15.41 7.11993 14.93C7.19993 14.83 7.19993 14.73 7.11993 14.61C6.69993 13.91 6.41993 13.21 6.06993 12.51V12.5ZM4.11993 20.15L4.04993 20.14C3.95993 20.12 3.90993 20.07 3.93993 19.93L4.25993 16.95C4.25993 16.93 4.25993 16.9 4.27993 16.88L4.28993 16.84C4.30993 16.81 4.34993 16.81 4.38993 16.81L4.44993 16.82L8.49993 17.89L12.5599 18.96C12.6799 19 12.7399 19.03 12.6799 19.18L12.0899 21.08C12.0699 21.16 12.0599 21.25 11.9699 21.25H11.9299C11.2199 21.13 10.4799 21.05 9.77993 20.94L8.35993 20.74L4.10993 20.14L4.11993 20.15Z" fill="#393842"/>
</svg>
