<svg width="24" height="24" viewBox="0 0 24 24" fill="none" xmlns="http://www.w3.org/2000/svg">
<path d="M12 4.5C11.7 4.5 11.6 4.4 11.2 4.5L11.6 4.3C11.2 4.3 10.6 4.5 10.8 4.3C10.2 4.6 9.1 5 8.5 5.5C8.1 5.8 7.2 6.5 7.1 6.9H7L6.6 7.7C6.5 8 6.4 7.8 6.4 7.9C6 8.6 5.8 9.3 5.6 9.9C5.8 10 5.6 10.9 5.6 11.5C5.56172 13.1794 6.06661 14.8262 7.03957 16.1956C8.01252 17.5649 9.40155 18.5836 11 19.1C11.5 19.3 12 19.3 12.6 19.3L11.3 19C10.8 18.8 10.8 18.5 10.5 18.3V18.5L9.7 18L9.8 17.9C9.6 17.9 9.3 17.5 9.2 17.4H9L8.6 16.6V16.8C8.5 16.6 7.6 15.6 8 15.8L7.7 15.5V15.4L7.4 14.6C7.5 14.8 7.6 14.8 7.7 14.8C7.1 13.5 7.1 14.8 6.7 13.5L6.6 13.1V12.7C6.2 12.3 6.5 10.7 6.6 10C6.6 9.6 6.9 9.3 7.1 8.7H7C7.3 8.3 8.5 7 9 7C9.4 6.7 9 7 9 7C9.6 6.3 9.8 6.5 10.2 6.4C10.6 6.1 9.8 6.5 10 6.4C10.8 6.1 10.5 5.9 11.5 5.8C11.6 5.8 11.3 5.8 11.2 6C11.9 5.6 13.2 5.7 14.2 6.1C15.2 6.6 16.4 8.1 16.4 9.3V11L16.5 10.7C16.5 11.1 16.4 11.3 16.2 11.7H16C15.8 12.1 16 12 16 12.2L14.9 13C14.7 13 14.9 13 15 12.9C14.6 13.1 14.7 13.2 14 13.4C12.7 14 10.7 12.7 10.7 10.9V11C10.6 10.1 11.1 9.2 11.9 8.9C12.8 8.4 13.7 8.6 14.3 9.1C14 8.7 13.3 8.3 12.6 8.3C12.2544 8.30557 11.9161 8.40061 11.6182 8.57587C11.3202 8.75113 11.0728 9.00062 10.9 9.3C10.5 9.5 10.5 10.3 10.3 10.3C10 12 10.7 12.7 11.8 13.5C12 13.6 11.8 13.7 11.9 13.8L10.9 13L11.4 13.6C11.1 13.5 10.8 13 10.6 12.8H10.5L10.4 12.6L10.2 12.5L10.5 12.9C11.2 13.9 12.9 14.6 13.9 14.2C13.4 14.2 12.9 14.2 12.4 14L11.9 13.7C13.2 14.1 14.5 14 15.7 13.1L16.4 12.5C16.2 12.7 16.4 12.6 16.3 12.8C16.6 12.4 16.2 12.6 16.6 12L16.7 12.2C16.7 11.9 17.2 11.4 17.2 10.8V11.4C17.4 11 17.2 10.9 17.2 10.5L17.4 10.9L17.6 9.9C17.6 9.9 17.4 10.1 17.4 9.5C17.4 9.3 17.4 9.5 17.4 9.5L17.2 8.9L17.5 9L17.3 8.4C17.1 7.9 17.3 8.4 17.1 8.2C16.9 7.5 17.3 8 17.3 7.7C17.6 8.2 17.8 9 17.9 9.3C17.9 8.9 17.7 8.5 17.6 8.2C17.6 8.2 17.4 7.4 17.7 8C17.3286 6.80202 16.503 5.79699 15.4 5.2L15.6 5.5L15 5H14.4L12.8 4.4V4.5H11.8H11.9L12.1 4.4C12.2 4.4 12.3 4.4 12.2 4.5C12.4 4.5 12.4 4.4 12.2 4.3H12.4H11.9H12.1L11.9 4.5H12ZM12 2C14.6522 2 17.1957 3.05357 19.0711 4.92893C20.9464 6.8043 22 9.34784 22 12C22 14.6522 20.9464 17.1957 19.0711 19.0711C17.1957 20.9464 14.6522 22 12 22C9.34784 22 6.8043 20.9464 4.92893 19.0711C3.05357 17.1957 2 14.6522 2 12C2 9.34784 3.05357 6.8043 4.92893 4.92893C6.8043 3.05357 9.34784 2 12 2ZM12.5 12.5L12.8 12.7L12.9 12.5H12.5ZM14.5 11.5L14.7 11.1L14.5 11.4C14 11.6 14.5 11.3 14.5 11.2C14 11.6 14.5 11.4 14.5 11.5ZM15.5 10.5C15.3 10.8 15.3 10.5 15.2 10.5C15.2 10.2 15.5 10 15.4 10.5H15.5ZM6.2 7C6.2 7.2 6.5 6.8 6.2 7.3C5.9 7.6 6.2 7.4 6.2 7ZM5.6 9.3C5.6 9.1 5.5 9 5.9 8.8L5.6 9.3Z" fill="#393842"/>
</svg>
