<svg width="24" height="24" viewBox="0 0 24 24" fill="none" xmlns="http://www.w3.org/2000/svg">
<path d="M7.5659 14.548H4.5409C4.9419 15.923 5.6849 17.153 6.7729 18.241C8.5079 19.976 10.5939 20.842 13.0329 20.842C13.5209 20.842 13.9929 20.806 14.4519 20.737C16.2899 20.459 17.8979 19.629 19.2769 18.241C20.3719 17.154 21.1209 15.921 21.5239 14.548H7.5669H7.5659ZM21.7469 10.44C21.8049 10.788 21.8449 11.142 21.8629 11.505H4.2019C4.2199 11.141 4.2589 10.787 4.3169 10.44H21.7469ZM21.8629 12.494C21.8449 12.858 21.8059 13.212 21.7469 13.559H4.3169C4.2629 13.255 4.2219 12.888 4.2029 12.516L4.2019 12.494H21.8629ZM21.5229 9.451C21.1199 8.073 20.3709 6.836 19.2749 5.74C17.8999 4.365 16.2959 3.541 14.4649 3.263C14.0369 3.195 13.5429 3.156 13.0399 3.156C13.0369 3.156 13.0339 3.156 13.0319 3.156C10.5929 3.156 8.5069 4.017 6.7719 5.74C5.6839 6.836 4.9399 8.073 4.5399 9.451H21.5229Z" fill="#393842"/>
<path d="M3.67696 12C3.67696 7.335 7.18096 3.459 11.739 2.777C11.626 2.773 11.513 2.769 11.398 2.769C6.28296 2.769 2.13696 6.902 2.13696 12.001C2.13696 17.1 6.28396 21.233 11.4 21.233C11.514 21.233 11.628 21.229 11.741 21.225C7.18196 20.543 3.67796 16.667 3.67796 12.001L3.67696 12Z" fill="#393842"/>
</svg>
