<svg width="24" height="24" viewBox="0 0 24 24" fill="none" xmlns="http://www.w3.org/2000/svg">
<path d="M10.194 6.307C10.589 6.579 11.067 6.738 11.583 6.738C12.097 6.738 12.573 6.58 12.967 6.309L12.429 10.912C12.176 10.779 11.888 10.703 11.583 10.703C11.273 10.703 10.981 10.781 10.725 10.918L10.195 6.306L10.194 6.307ZM10.128 5.74L9.96096 4.287H13.203L13.033 5.743C12.661 6.117 12.147 6.35 11.582 6.35C11.016 6.35 10.501 6.116 10.128 5.74ZM13.146 11.591L16.941 12.914L19.205 16.303L18.589 16.812L16.044 14.347L12.626 14.019C13.097 13.689 13.405 13.143 13.405 12.526C13.405 12.185 13.311 11.865 13.147 11.591H13.146ZM11.754 13.935L11.582 13.918L11.937 11.507H11.228L11.583 13.918L11.411 13.934C10.713 13.849 10.163 13.256 10.163 12.524C10.163 11.747 10.793 11.104 11.583 11.104C12.36 11.104 13.003 11.747 13.003 12.524C13.003 13.244 12.463 13.848 11.755 13.934L11.754 13.935ZM10.539 14.019L7.10796 14.348L4.57596 16.813L3.95996 16.304L6.22396 12.915L10.019 11.592C9.85496 11.865 9.76096 12.185 9.76096 12.527C9.76096 13.144 10.069 13.69 10.54 14.02L10.539 14.019Z" fill="#393842"/>
<path d="M13.8331 4.287C13.8331 5.533 12.8281 6.538 11.5821 6.538C10.3361 6.538 9.33105 5.533 9.33105 4.287C9.33105 3.041 10.3361 2.036 11.5821 2.036C12.8281 2.049 13.8331 3.054 13.8331 4.287Z" fill="#393842"/>
<path d="M12.319 4.287C12.319 4.689 11.984 5.024 11.582 5.024C11.18 5.024 10.845 4.689 10.845 4.287C10.845 3.885 11.18 3.55 11.582 3.55C11.984 3.563 12.319 3.885 12.319 4.287Z" fill="#393842"/>
<path d="M13.2029 12.525C13.2029 13.422 12.4799 14.146 11.5819 14.146C10.6839 14.146 9.96094 13.423 9.96094 12.525C9.96094 11.628 10.6839 10.904 11.5819 10.904C12.4799 10.904 13.2029 11.627 13.2029 12.525Z" fill="#393842"/>
<path d="M12.0779 12.525C12.0779 12.806 11.8499 13.021 11.5819 13.021C11.3009 13.021 11.0859 12.793 11.0859 12.525C11.0859 12.244 11.3139 12.029 11.5819 12.029C11.8499 12.029 12.0779 12.257 12.0779 12.525Z" fill="#393842"/>
<path d="M6.35791 22.036V16.262H16.8069V22.036H6.35791ZM6.87991 21.568H7.66991V16.732H6.87991V21.568ZM8.31391 21.568H9.10391V16.732H8.31391V21.568ZM9.74691 21.568H10.5369V16.732H9.74691V21.568ZM11.1799 21.568H11.9699V16.732H11.1799V21.568ZM12.6139 21.568H13.4179V16.732H12.6139V21.568ZM14.0469 21.568H14.8509V16.732H14.0469V21.568ZM15.4799 21.568H16.2839V16.732H15.4799V21.568Z" fill="#393842"/>
</svg>
