<svg width="836" height="836" viewBox="0 0 836 836" fill="none" xmlns="http://www.w3.org/2000/svg">
<g clip-path="url(#clip0)">
<rect width="836" height="836" fill="white"/>
<g filter="url(#filter0_dd)">
<path d="M400.679 264C408.377 250.667 427.623 250.667 435.321 264L699.458 721.5C707.156 734.833 697.534 751.5 682.138 751.5H153.862C138.466 751.5 128.844 734.833 136.542 721.5L400.679 264Z" fill="white"/>
</g>
<g filter="url(#filter1_dd)">
<path d="M449.932 405.74C451.638 405.74 453.001 407.161 452.929 408.865L445.58 584.885C445.513 586.492 444.191 587.76 442.583 587.76H393.237C391.629 587.76 390.307 586.492 390.24 584.885L382.89 408.865C382.819 407.161 384.182 405.74 385.888 405.74H449.932ZM418.86 685.04C407.46 685.04 398.087 681.747 390.74 675.16C383.647 668.32 380.1 659.96 380.1 650.08C380.1 639.947 383.647 631.46 390.74 624.62C398.087 617.78 407.46 614.36 418.86 614.36C430.007 614.36 439.127 617.78 446.22 624.62C453.567 631.46 457.24 639.947 457.24 650.08C457.24 659.96 453.567 668.32 446.22 675.16C439.127 681.747 430.007 685.04 418.86 685.04Z" fill="#4C9AFF"/>
</g>
<g filter="url(#filter2_dd)">
<path d="M486.374 111.999H434.349L444.34 52.0566C444.537 50.878 443.914 49.7178 442.825 49.2295C441.738 48.7413 440.457 49.051 439.707 49.9777L363.582 144.478C362.946 145.265 362.82 146.347 363.259 147.258C363.692 148.168 364.613 148.749 365.624 148.749H417.649L407.658 208.69C407.461 209.869 408.083 211.029 409.173 211.518C409.522 211.675 409.887 211.749 410.249 211.749C411.026 211.749 411.784 211.405 412.294 210.769L488.419 116.269C489.054 115.482 489.18 114.4 488.742 113.49C488.306 112.579 487.384 111.999 486.374 111.999Z" fill="#4C9AFF"/>
</g>
<g filter="url(#filter3_dd)">
<path d="M335.84 172.408L322.729 202.755L290.281 181.822C289.644 181.41 288.81 181.48 288.251 181.993C287.692 182.503 287.55 183.329 287.901 184L323.84 252.22C324.14 252.789 324.739 253.135 325.38 253.109C326.021 253.086 326.592 252.695 326.846 252.105L339.957 221.758L372.404 242.692C373.042 243.104 373.876 243.033 374.435 242.521C374.615 242.357 374.75 242.163 374.841 241.951C375.037 241.498 375.028 240.969 374.785 240.512L338.846 172.292C338.547 171.723 337.948 171.377 337.306 171.403C336.665 171.428 336.094 171.819 335.84 172.408Z" fill="white"/>
</g>
<g filter="url(#filter4_dd)">
<path d="M506.848 172.408L519.959 202.755L552.406 181.822C553.044 181.41 553.877 181.48 554.437 181.993C554.995 182.503 555.138 183.329 554.786 184L518.847 252.22C518.548 252.789 517.949 253.135 517.307 253.109C516.666 253.086 516.096 252.695 515.841 252.105L502.73 221.758L470.283 242.692C469.645 243.104 468.812 243.033 468.252 242.521C468.072 242.357 467.938 242.163 467.846 241.951C467.65 241.498 467.66 240.969 467.902 240.512L503.841 172.292C504.14 171.723 504.74 171.377 505.381 171.403C506.023 171.428 506.593 171.819 506.848 172.408Z" fill="white"/>
</g>
</g>
<defs>
<filter id="filter0_dd" x="103.832" y="239" width="628.335" height="557.5" filterUnits="userSpaceOnUse" color-interpolation-filters="sRGB">
<feFlood flood-opacity="0" result="BackgroundImageFix"/>
<feColorMatrix in="SourceAlpha" type="matrix" values="0 0 0 0 0 0 0 0 0 0 0 0 0 0 0 0 0 0 127 0"/>
<feOffset/>
<feGaussianBlur stdDeviation="1.5"/>
<feColorMatrix type="matrix" values="0 0 0 0 0.0352941 0 0 0 0 0.117647 0 0 0 0 0.258824 0 0 0 0.31 0"/>
<feBlend mode="normal" in2="BackgroundImageFix" result="effect1_dropShadow"/>
<feColorMatrix in="SourceAlpha" type="matrix" values="0 0 0 0 0 0 0 0 0 0 0 0 0 0 0 0 0 0 127 0"/>
<feOffset dy="15"/>
<feGaussianBlur stdDeviation="15"/>
<feColorMatrix type="matrix" values="0 0 0 0 0.0352941 0 0 0 0 0.117647 0 0 0 0 0.258824 0 0 0 0.15 0"/>
<feBlend mode="normal" in2="effect1_dropShadow" result="effect2_dropShadow"/>
<feBlend mode="normal" in="SourceGraphic" in2="effect2_dropShadow" result="shape"/>
</filter>
<filter id="filter1_dd" x="375.1" y="403.74" width="87.14" height="289.3" filterUnits="userSpaceOnUse" color-interpolation-filters="sRGB">
<feFlood flood-opacity="0" result="BackgroundImageFix"/>
<feColorMatrix in="SourceAlpha" type="matrix" values="0 0 0 0 0 0 0 0 0 0 0 0 0 0 0 0 0 0 127 0"/>
<feOffset/>
<feGaussianBlur stdDeviation="0.5"/>
<feColorMatrix type="matrix" values="0 0 0 0 0.0352941 0 0 0 0 0.117647 0 0 0 0 0.258824 0 0 0 0.31 0"/>
<feBlend mode="normal" in2="BackgroundImageFix" result="effect1_dropShadow"/>
<feColorMatrix in="SourceAlpha" type="matrix" values="0 0 0 0 0 0 0 0 0 0 0 0 0 0 0 0 0 0 127 0"/>
<feOffset dy="3"/>
<feGaussianBlur stdDeviation="2.5"/>
<feColorMatrix type="matrix" values="0 0 0 0 0.0352941 0 0 0 0 0.117647 0 0 0 0 0.258824 0 0 0 0.2 0"/>
<feBlend mode="normal" in2="effect1_dropShadow" result="effect2_dropShadow"/>
<feBlend mode="normal" in="SourceGraphic" in2="effect2_dropShadow" result="shape"/>
</filter>
<filter id="filter2_dd" x="353" y="46" width="146" height="183.749" filterUnits="userSpaceOnUse" color-interpolation-filters="sRGB">
<feFlood flood-opacity="0" result="BackgroundImageFix"/>
<feColorMatrix in="SourceAlpha" type="matrix" values="0 0 0 0 0 0 0 0 0 0 0 0 0 0 0 0 0 0 127 0"/>
<feOffset/>
<feGaussianBlur stdDeviation="1.5"/>
<feColorMatrix type="matrix" values="0 0 0 0 0.0352941 0 0 0 0 0.117647 0 0 0 0 0.258824 0 0 0 0.31 0"/>
<feBlend mode="normal" in2="BackgroundImageFix" result="effect1_dropShadow"/>
<feColorMatrix in="SourceAlpha" type="matrix" values="0 0 0 0 0 0 0 0 0 0 0 0 0 0 0 0 0 0 127 0"/>
<feOffset dy="8"/>
<feGaussianBlur stdDeviation="5"/>
<feColorMatrix type="matrix" values="0 0 0 0 0.0352941 0 0 0 0 0.117647 0 0 0 0 0.258824 0 0 0 0.2 0"/>
<feBlend mode="normal" in2="effect1_dropShadow" result="effect2_dropShadow"/>
<feBlend mode="normal" in="SourceGraphic" in2="effect2_dropShadow" result="shape"/>
</filter>
<filter id="filter3_dd" x="258" y="152" width="146.687" height="135.512" filterUnits="userSpaceOnUse" color-interpolation-filters="sRGB">
<feFlood flood-opacity="0" result="BackgroundImageFix"/>
<feColorMatrix in="SourceAlpha" type="matrix" values="0 0 0 0 0 0 0 0 0 0 0 0 0 0 0 0 0 0 127 0"/>
<feOffset/>
<feGaussianBlur stdDeviation="1.5"/>
<feColorMatrix type="matrix" values="0 0 0 0 0.0352941 0 0 0 0 0.117647 0 0 0 0 0.258824 0 0 0 0.31 0"/>
<feBlend mode="normal" in2="BackgroundImageFix" result="effect1_dropShadow"/>
<feColorMatrix in="SourceAlpha" type="matrix" values="0 0 0 0 0 0 0 0 0 0 0 0 0 0 0 0 0 0 127 0"/>
<feOffset dy="8"/>
<feGaussianBlur stdDeviation="5"/>
<feColorMatrix type="matrix" values="0 0 0 0 0.0352941 0 0 0 0 0.117647 0 0 0 0 0.258824 0 0 0 0.2 0"/>
<feBlend mode="normal" in2="effect1_dropShadow" result="effect2_dropShadow"/>
<feBlend mode="normal" in="SourceGraphic" in2="effect2_dropShadow" result="shape"/>
</filter>
<filter id="filter4_dd" x="438" y="152" width="146.687" height="135.512" filterUnits="userSpaceOnUse" color-interpolation-filters="sRGB">
<feFlood flood-opacity="0" result="BackgroundImageFix"/>
<feColorMatrix in="SourceAlpha" type="matrix" values="0 0 0 0 0 0 0 0 0 0 0 0 0 0 0 0 0 0 127 0"/>
<feOffset/>
<feGaussianBlur stdDeviation="1.5"/>
<feColorMatrix type="matrix" values="0 0 0 0 0.0352941 0 0 0 0 0.117647 0 0 0 0 0.258824 0 0 0 0.31 0"/>
<feBlend mode="normal" in2="BackgroundImageFix" result="effect1_dropShadow"/>
<feColorMatrix in="SourceAlpha" type="matrix" values="0 0 0 0 0 0 0 0 0 0 0 0 0 0 0 0 0 0 127 0"/>
<feOffset dy="8"/>
<feGaussianBlur stdDeviation="5"/>
<feColorMatrix type="matrix" values="0 0 0 0 0.0352941 0 0 0 0 0.117647 0 0 0 0 0.258824 0 0 0 0.2 0"/>
<feBlend mode="normal" in2="effect1_dropShadow" result="effect2_dropShadow"/>
<feBlend mode="normal" in="SourceGraphic" in2="effect2_dropShadow" result="shape"/>
</filter>
<clipPath id="clip0">
<rect width="836" height="836" fill="white"/>
</clipPath>
</defs>
</svg>
