<svg width="24" height="24" viewBox="0 0 24 24" fill="none" xmlns="http://www.w3.org/2000/svg">
<path d="M21.9471 2H8.58708C7.98908 2 7.39608 2.07 6.81408 2.227C5.22908 2.667 3.92008 3.648 3.06708 4.954L3.05208 4.979C2.68708 5.535 2.39708 6.179 2.21608 6.868L2.20608 6.913C2.06108 7.481 2.00708 8.06 2.00708 8.648V21.999H15.4741C15.4781 21.999 15.4821 21.999 15.4861 21.999C15.9861 21.999 16.4731 21.938 16.9381 21.823L16.8971 21.832C17.6861 21.648 18.3821 21.342 19.0021 20.931L18.9781 20.946C19.7411 20.446 20.3741 19.815 20.8601 19.078L20.8751 19.054C21.6031 17.946 21.9481 16.719 21.9481 15.394V2H21.9471ZM19.0671 5.481C19.0671 8.816 19.0671 12.146 19.0621 15.481C19.0621 16.086 18.9221 16.659 18.6311 17.189C18.1461 18.076 17.4181 18.67 16.4531 18.967C16.1511 19.06 15.8041 19.114 15.4451 19.114C15.4341 19.114 15.4221 19.114 15.4111 19.114H15.4131H4.86908V18.519C4.86908 15.179 4.86408 11.832 4.86908 8.492C4.86908 7.621 5.16608 6.849 5.72108 6.184C6.17508 5.64 6.77908 5.236 7.46908 5.033L7.49408 5.027C7.80708 4.935 8.12508 4.886 8.45408 4.886H19.0571L19.0681 5.481H19.0671Z" fill="#393842"/>
<path d="M9.52501 8.584H18.285V5.687L8.57201 5.692C7.57501 5.692 6.79901 6.135 6.24901 6.962C5.94701 7.416 5.81201 7.93 5.81201 8.475V18.395H8.70101V13.486H16.486V10.594H8.72301C8.70101 10.578 8.69601 10.551 8.69601 10.502C8.70101 10.194 8.69601 9.886 8.69601 9.578C8.69601 9.031 9.01901 8.653 9.52501 8.583V8.584Z" fill="#393842"/>
</svg>
