<svg width="24" height="24" viewBox="0 0 24 24" fill="none" xmlns="http://www.w3.org/2000/svg">
<path d="M6.08401 11.988C6.03601 9.908 5.52401 7.87 6.05001 5.82C3.76601 5.177 5.465 2.271 7.299 3.466C8.42 2.321 10.033 2.142 11.824 2C13.521 2 15.139 2.18 16.317 3.171C18.027 2.134 19.509 4.711 17.7 5.503C18.26 7.577 18.06 9.76 18.154 11.914C18.452 11.936 18.748 12.032 18.986 12.204C19.15 12.324 19.457 12.704 19.136 12.852C19.108 13.449 18.512 13.172 18.242 12.986C18.349 15.023 18.482 17.281 17.557 19.13C17.323 19.592 17.02 19.984 16.658 20.311L16.654 20.314C17.122 20.634 17.854 21.433 17.198 21.83C16.556 22.418 16.188 21.24 15.636 21.007C14.393 21.643 12.857 21.825 11.496 21.777C10.496 21.741 9.37601 21.54 8.41301 21.078C7.88301 21.173 7.58001 21.659 7.13001 21.907C6.70701 22.159 6.544 21.826 6.507 21.758C6.441 21.728 6.446 21.786 6.343 21.684C5.951 21.064 6.75301 20.611 7.17001 20.304C7.18701 20.3 7.21 20.296 7.233 20.293L7.238 20.292C6.998 20.07 6.78901 19.818 6.61701 19.542L6.608 19.527C5.471 17.687 5.96501 14.976 6.07001 12.893C6.02301 12.971 5.933 12.941 5.758 13.062C5.488 13.248 4.892 13.524 4.863 12.928C4.543 12.779 4.85001 12.399 5.01301 12.28C5.316 12.06 5.71101 11.967 6.08301 11.988H6.08401ZM12.624 8.566C12.644 8.521 12.656 8.469 12.656 8.415C12.656 8.378 12.651 8.342 12.64 8.308L12.641 8.311C12.549 7.971 12.132 7.791 11.675 7.838C11.203 7.887 10.86 8.158 10.877 8.556L10.933 8.554L10.877 8.561C10.879 8.579 10.882 8.594 10.886 8.609L10.885 8.606C10.499 8.731 10.224 9.206 10.435 9.589C10.75 10.158 11.028 9.589 11.89 9.596C12.393 9.607 12.804 10.128 13.21 9.691C13.626 9.239 13.103 8.798 12.624 8.567V8.566ZM12.517 9.921L11.859 9.736C11.849 10.042 11.791 10.339 11.833 10.646C11.899 10.786 12.037 10.886 12.201 10.909C12.32 10.86 12.458 10.846 12.528 10.726C12.58 10.456 12.518 10.174 12.518 9.921H12.517ZM10.941 9.893C10.706 10.377 11.072 11.343 11.711 10.63C11.664 10.324 11.727 10.027 11.738 9.721L10.941 9.893ZM17.061 4.715H17.062C17.362 4.555 17.585 4.338 17.4 3.99C17.23 3.667 16.913 3.703 16.61 3.862L17.062 4.715H17.061ZM10.995 8.575C11.063 9.095 12.673 8.958 12.51 8.372C12.347 7.785 10.964 7.872 10.995 8.575ZM6.147 5.018L6.59801 4.165C6.29601 4.005 5.98001 3.971 5.80801 4.293C5.62401 4.643 5.846 4.858 6.147 5.018ZM7.41901 6.83C7.95101 8.908 11.278 8.376 11.152 6.292C11.002 3.796 6.91001 4.278 7.42001 6.83H7.41901ZM12.08 6.444C12.491 8.83 16.392 8.2 15.831 5.794C15.329 3.635 11.944 4.232 12.081 6.444H12.08ZM13.043 6.948C13.348 6.948 13.595 6.676 13.595 6.34C13.595 6.004 13.348 5.732 13.043 5.732C12.738 5.732 12.49 6.004 12.49 6.34C12.49 6.676 12.738 6.949 13.043 6.949V6.948ZM8.33601 7.1C8.64601 7.1 8.898 6.828 8.898 6.492C8.898 6.156 8.64701 5.882 8.33601 5.882C8.02601 5.882 7.77501 6.156 7.77501 6.492C7.77501 6.828 8.02601 7.1 8.33601 7.1Z" fill="#393842"/>
</svg>
