<svg width="24" height="24" viewBox="0 0 24 24" fill="none" xmlns="http://www.w3.org/2000/svg">
<path d="M15.2982 8.527L16.9562 6.713L17.0662 5.948C14.0472 2.942 9.2472 3.283 6.5242 6.659C5.7682 7.598 5.2072 8.766 4.9082 9.973L5.5022 9.882L8.8162 9.283L9.0722 8.997C10.5462 7.224 13.0382 6.986 14.7412 8.494L15.2992 8.526L15.2982 8.527Z" fill="#393842"/>
<path d="M19.2212 9.748C18.8192 8.227 18.0202 6.928 16.9412 5.926L16.9362 5.921L14.5742 8.374C15.5722 9.22 16.1392 10.496 16.1152 11.833V12.269C17.2752 12.269 18.2172 13.246 18.2172 14.451C18.2172 15.656 17.2762 16.61 16.1152 16.61H11.9062L11.4932 17.076V19.694L11.9062 20.104H16.1152C19.1342 20.129 21.6002 17.631 21.6242 14.495C21.6382 12.594 20.7362 10.812 19.2202 9.747L19.2212 9.748Z" fill="#393842"/>
<path d="M7.74312 20.106H12.0001V16.748H7.74312C7.42712 16.748 7.12712 16.679 6.85712 16.554L6.87012 16.559L6.26612 16.741L4.55012 18.42L4.40112 18.991C5.36412 19.707 6.53712 20.11 7.74312 20.104V20.106Z" fill="#393842"/>
<path d="M7.7171 8.961C4.7491 8.98 2.3571 11.525 2.3751 14.646C2.3851 16.389 3.1591 18.03 4.4731 19.092L6.8701 16.571C5.8301 16.077 5.3681 14.79 5.8381 13.696C6.3081 12.602 7.5321 12.116 8.5721 12.611C9.0371 12.839 9.3981 13.218 9.5991 13.682L9.6041 13.696L12.0011 11.176C10.9811 9.774 9.3971 8.954 7.7181 8.96L7.7171 8.961Z" fill="#393842"/>
</svg>
