<svg width="24" height="24" viewBox="0 0 24 24" fill="none" xmlns="http://www.w3.org/2000/svg">
<path d="M18.9549 6.97L18.9459 6.978C18.8439 6.908 18.7419 6.842 18.6629 6.774C18.5989 6.718 18.5359 6.665 18.5459 6.574C18.5459 6.517 18.5719 6.444 18.6509 6.344C18.6659 6.325 18.6839 6.311 18.7049 6.3H18.7059C18.8459 6.14 19.0869 5.952 19.1379 5.891C19.3589 5.624 20.0799 5.935 20.5479 6.351C21.0599 6.721 21.6119 7.407 21.8079 7.985C22.0809 8.8 22.0919 9.831 21.6389 10.872C20.8909 12.627 19.7379 13.782 17.2689 14.111C15.8199 14.314 16.1139 15.378 16.1139 18.209H14.1439C14.1439 18.209 10.8159 12.899 9.26392 18.209H7.51192C7.15992 15.593 5.05392 15.491 4.46592 18.209H2.15592C2.15592 18.209 0.89992 10.826 5.53992 9.151C5.53992 9.151 5.95992 10.148 6.50392 11.019C7.10392 11.982 8.67792 12.649 10.5129 9.887C10.5129 9.887 8.04292 12.616 6.92292 10.747C6.20992 9.571 6.44692 10.011 5.72292 8.585C5.19092 7.544 5.81292 7.09 7.17192 6.638C8.53092 6.185 12.6289 5.028 15.6849 7.872C18.5629 10.544 19.2639 10.408 19.8859 9.842C20.4409 9.332 20.1239 8.494 19.9879 8.132C19.7449 7.502 19.2899 7.191 18.9559 6.97H18.9549ZM14.4509 9.968L13.6249 9.695C13.6249 9.695 13.1829 10.928 14.4049 11.325C15.3229 11.641 16.0349 10.905 16.1149 10.52L15.4599 10.303C15.4689 10.331 15.4729 10.363 15.4779 10.394C15.4789 10.41 15.4799 10.429 15.4799 10.448C15.4799 10.779 15.2269 11.051 14.9029 11.081H14.8999C14.8759 11.084 14.8489 11.086 14.8209 11.086C14.4989 11.086 14.2329 10.846 14.1919 10.534V10.531C14.1899 10.512 14.1889 10.491 14.1889 10.469C14.1889 10.262 14.2899 10.079 14.4459 9.966L14.4479 9.965L14.4499 9.968H14.4509Z" fill="#393842"/>
</svg>
