<svg width="24" height="24" viewBox="0 0 24 24" fill="none" xmlns="http://www.w3.org/2000/svg">
<path d="M12.035 18.289C11.637 18.289 11.313 19.119 11.313 20.145C11.313 21.171 11.637 22.001 12.035 22.001C12.434 22.001 12.757 21.17 12.757 20.145C12.757 19.12 12.434 18.289 12.035 18.289ZM8.131 16.974C7.805 16.748 7.058 17.244 6.465 18.084C5.872 18.924 5.655 19.788 5.981 20.014C6.308 20.241 7.054 19.744 7.648 18.904C8.242 18.064 8.458 17.201 8.131 16.974ZM15.946 16.974C16.273 16.748 17.019 17.244 17.613 18.084C18.207 18.924 18.423 19.788 18.096 20.014C17.77 20.241 17.023 19.744 16.43 18.904C15.837 18.064 15.619 17.201 15.946 16.974Z" fill="#393842"/>
<path d="M12.035 5.711C11.637 5.711 11.313 4.88 11.313 3.855C11.313 2.83 11.637 1.999 12.035 1.999C12.434 1.999 12.757 2.83 12.757 3.855C12.757 4.88 12.434 5.711 12.035 5.711ZM8.131 7.026C7.805 7.252 7.058 6.756 6.465 5.916C5.872 5.076 5.655 4.213 5.981 3.986C6.308 3.759 7.054 4.256 7.648 5.096C8.242 5.936 8.458 6.799 8.131 7.026ZM15.946 7.026C16.273 7.252 17.019 6.756 17.613 5.916C18.207 5.076 18.423 4.213 18.096 3.986C17.77 3.759 17.023 4.256 16.43 5.096C15.837 5.936 15.619 6.799 15.946 7.026Z" fill="#393842"/>
<path d="M17.084 8.985C15.979 7.184 14.049 6.109 11.921 6.109C9.86102 6.109 7.96402 7.132 6.84602 8.845L5.82202 8.19C7.16502 6.131 9.44502 4.902 11.921 4.902C14.479 4.902 16.799 6.194 18.127 8.358L17.085 8.985H17.084ZM11.921 19.241C9.54502 19.241 7.31702 18.088 5.96002 16.157L6.96102 15.467C8.09002 17.074 9.94402 18.033 11.92 18.033C13.9 18.033 15.757 17.07 16.886 15.459L17.888 16.147C16.532 18.084 14.301 19.241 11.92 19.241H11.921Z" fill="#393842"/>
<path d="M16.5929 9.555H18.0329L18.8579 11.717L19.1499 12.566H19.1819L19.4729 11.717L20.2649 9.555H21.7049V14.759H20.4109V13.222C20.4109 13.088 20.4169 12.942 20.4309 12.781C20.4449 12.62 20.4589 12.457 20.4759 12.289C20.4919 12.121 20.5109 11.957 20.5329 11.797C20.5549 11.637 20.5729 11.493 20.5889 11.365H20.5569L20.1199 12.582L19.3919 14.335H18.8739L18.1459 12.582L17.7259 11.365H17.6929C17.7089 11.493 17.7279 11.637 17.7499 11.797C17.7719 11.957 17.7899 12.121 17.8059 12.289C17.8219 12.457 17.8369 12.622 17.8509 12.781C17.8649 12.94 17.8709 13.088 17.8709 13.222V14.759H16.5929V9.555ZM12.3069 9.555H13.6979V13.606H15.6869V14.759H12.3069V9.555ZM7.81092 9.555H11.2079V10.708H9.20192V11.525H10.9169V12.677H9.20192V13.606H11.2889V14.759H7.81192V9.555H7.81092ZM2.29492 9.555H3.68592V11.493H5.25492V9.555H6.64592V14.759H5.25492V12.693H3.68592V14.759H2.29492V9.555Z" fill="#393842"/>
</svg>
