<svg width="24" height="24" viewBox="0 0 24 24" fill="none" xmlns="http://www.w3.org/2000/svg">
<path d="M19.1759 2H4.8259C4.8229 2 4.8199 2 4.8169 2C3.8269 2 3.0249 2.803 3.0249 3.792C3.0249 3.795 3.0249 3.798 3.0249 3.8V20.2C3.0249 20.202 3.0249 20.205 3.0249 20.207C3.0249 21.197 3.8279 21.999 4.8169 21.999C4.8199 21.999 4.8219 21.999 4.8249 21.999H19.1739C19.1759 21.999 19.1789 21.999 19.1819 21.999C20.1719 21.999 20.9739 21.196 20.9739 20.207C20.9739 20.204 20.9739 20.202 20.9739 20.199V3.799C20.9739 3.797 20.9739 3.794 20.9739 3.791C20.9739 2.801 20.1719 1.999 19.1819 1.999C19.1799 1.999 19.1769 1.999 19.1749 1.999L19.1759 2ZM19.9759 20.2C19.9759 20.65 19.6259 21 19.1759 21H4.8259C4.3759 21 4.0249 20.65 4.0249 20.2V3.8C4.0249 3.35 4.3749 3 4.8249 3H19.1749C19.6249 3 19.9759 3.35 19.9759 3.799V20.2ZM7.5259 19L9.7749 17.001L7.5259 15.001V19.001V19ZM15.6259 10.9C15.2259 10.5 14.4759 10 13.2259 10C11.8759 10 10.4759 10.35 9.4759 10.7V5H7.5269V13.65L8.9259 13C8.9259 13 11.2259 11.95 13.2269 11.95C14.2269 11.95 14.4769 12.5 14.4769 13V19H16.4769V13C16.4769 12.85 16.4769 11.75 15.6269 10.9H15.6259ZM12.9759 8.251H14.9749C15.8749 7.2 16.3249 6.151 16.4749 5.001H14.4749C14.2749 6.15 13.7749 7.2 12.9749 8.251H12.9759Z" fill="#393842"/>
</svg>
