<svg width="24" height="24" viewBox="0 0 24 24" fill="none" xmlns="http://www.w3.org/2000/svg">
<path d="M7.71491 6.99C7.71391 6.99 7.71191 6.99 7.70991 6.99C7.59091 6.99 7.48591 6.929 7.42591 6.836L7.42491 6.835L6.51291 5.363C6.48091 5.315 6.46191 5.257 6.46191 5.194C6.46191 5.098 6.50591 5.011 6.57591 4.955H6.57691C6.63591 4.909 6.71091 4.881 6.79291 4.881C6.81291 4.881 6.83391 4.883 6.85291 4.886H6.85091C6.94891 4.902 7.03391 4.957 7.08291 5.037L7.99391 6.507C8.02591 6.555 8.04391 6.613 8.04391 6.677C8.04391 6.784 7.98991 6.879 7.90691 6.935L7.90591 6.936C7.85191 6.971 7.78691 6.992 7.71591 6.992H7.71491V6.99Z" fill="#393842"/>
<path d="M11.2089 5.56V3.672C11.2019 3.478 11.4229 3.314 11.7129 3.298C11.8569 3.294 11.9969 3.329 12.1009 3.395C12.2049 3.461 12.2639 3.553 12.2639 3.649V5.584C12.2639 5.68 12.2049 5.772 12.1009 5.838C11.9989 5.899 11.8769 5.935 11.7459 5.935C11.7339 5.935 11.7229 5.935 11.7109 5.934H11.7129C11.4229 5.918 11.2019 5.754 11.2089 5.561V5.56Z" fill="#393842"/>
<path d="M16.2851 6.99C16.2141 6.99 16.1491 6.969 16.0941 6.933L16.0951 6.934C16.0111 6.877 15.9561 6.783 15.9561 6.675C15.9561 6.612 15.9751 6.553 16.0071 6.504L16.0061 6.505L16.9171 5.035C16.9691 4.955 17.0511 4.899 17.1471 4.884H17.1491C17.1661 4.881 17.1861 4.879 17.2071 4.879C17.2891 4.879 17.3641 4.907 17.4241 4.953L17.4231 4.952C17.4931 5.009 17.5371 5.095 17.5371 5.191C17.5371 5.254 17.5181 5.313 17.4851 5.362L17.4861 5.361L16.5751 6.833C16.5141 6.927 16.4091 6.989 16.2901 6.989C16.2881 6.989 16.2871 6.989 16.2851 6.989V6.99Z" fill="#393842"/>
<path d="M19.4289 10.154C19.3069 10.152 19.2029 10.081 19.1529 9.978L19.1519 9.976C19.1309 9.932 19.1189 9.88 19.1189 9.826C19.1189 9.699 19.1859 9.587 19.2859 9.523L20.7479 8.622C20.7949 8.591 20.8529 8.572 20.9159 8.572C21.0119 8.572 21.0969 8.616 21.1529 8.684V8.685C21.1999 8.744 21.2289 8.82 21.2289 8.902C21.2289 8.922 21.2269 8.941 21.2239 8.96V8.958C21.2089 9.057 21.1519 9.14 21.0729 9.19L21.0719 9.191L19.5829 10.109C19.5389 10.137 19.4849 10.154 19.4269 10.154H19.4289Z" fill="#393842"/>
<path d="M7.34209 19.12C4.76209 16.465 4.76309 12.162 7.34409 9.508C9.92509 6.854 14.1101 6.853 16.6921 9.506C17.0001 9.823 17.2791 10.172 17.5231 10.546L17.5391 10.572L16.9251 10.989C16.6941 10.633 16.4461 10.323 16.1711 10.04L16.1721 10.041C15.1221 8.95 13.6501 8.272 12.0191 8.272C10.3881 8.272 8.91509 8.95 7.86709 10.04L7.86509 10.042C5.57209 12.401 5.57109 16.225 7.86409 18.584L7.34309 19.119L7.34209 19.12Z" fill="#393842"/>
<path d="M16.695 20.703H6.49305C5.35705 20.695 4.27105 20.207 3.47405 19.348C2.67705 18.489 2.23405 17.328 2.24205 16.121L2.98005 16.127C2.97305 17.125 3.34005 18.085 3.99905 18.797C4.65805 19.509 5.55605 19.911 6.49605 19.919H16.691C18.397 19.92 19.944 18.855 20.64 17.201C21.336 15.547 21.053 13.611 19.916 12.261L20.466 11.738C21.797 13.319 22.129 15.584 21.3151 17.52C20.5011 19.456 18.6901 20.704 16.694 20.704L16.695 20.703Z" fill="#393842"/>
<path d="M2.98092 16.483L2.24292 16.478C2.25592 14.388 3.76192 12.61 5.81192 12.264L5.93492 12.996C4.23892 13.283 2.99192 14.754 2.98092 16.483Z" fill="#393842"/>
<path d="M12.4421 15.956L11.7371 15.95C11.7521 13.756 12.9941 11.799 14.8641 11.024C16.7341 10.249 18.8441 10.816 20.1761 12.451L19.6511 12.967C18.5131 11.571 16.7101 11.086 15.1131 11.749C13.5161 12.412 12.4551 14.083 12.4431 15.956H12.4421Z" fill="#393842"/>
</svg>
