<svg width="24" height="24" viewBox="0 0 24 24" fill="none" xmlns="http://www.w3.org/2000/svg">
<path d="M7.06202 17.594L2.21802 13.781L4.62402 9.312L11.53 12L7.06202 17.594Z" fill="#393842"/>
<path d="M22 7.344L21.625 18.906L13.937 22L9.31201 19L16.062 12L13.125 5.5L15.781 2.312L22 7.344Z" fill="#393842"/>
<path d="M22 7.344L15.906 14.532L13.125 5.501L15.781 2.313L22 7.344Z" fill="#393842"/>
<path d="M11.625 18.594L3.62502 21.5L4.90602 17L6.56202 11.438L1.99902 9.907L4.90502 2.001L11.155 2.751L17.343 9.813L11.625 18.594Z" fill="#393842"/>
<path d="M5.75 5.75H18.25V18.25H5.75V5.75Z" fill="#393842" stroke="white" stroke-width="0.5"/>
<path d="M6.93799 15.906H11.626V16.687H6.93799V15.906ZM10.281 8.313V7.376H7.71899V8.313H8.43799V11.594H7.71899V12.563H10.281V11.594H9.56199V8.313H10.281ZM12.781 12.625C12.753 12.626 12.72 12.627 12.687 12.627C12.346 12.627 12.023 12.545 11.738 12.401L11.75 12.406C11.482 12.256 11.254 12.069 11.065 11.847L11.062 11.844L11.781 11.031C11.911 11.173 12.058 11.3 12.219 11.406C12.352 11.485 12.511 11.532 12.682 11.532C12.695 11.532 12.708 11.532 12.721 11.531H12.719C12.732 11.532 12.748 11.533 12.763 11.533C12.947 11.533 13.111 11.447 13.218 11.314L13.219 11.313C13.339 11.16 13.411 10.964 13.411 10.751C13.411 10.718 13.409 10.685 13.406 10.652V10.656V7.312H14.562V10.687C14.563 10.714 14.564 10.746 14.564 10.778C14.564 11.037 14.517 11.285 14.432 11.514L14.437 11.499C14.35 11.772 14.199 12.004 14.001 12.185L14 12.186C13.662 12.439 13.243 12.599 12.787 12.623H12.782L12.781 12.625Z" fill="white"/>
</svg>
