<svg width="24" height="24" viewBox="0 0 24 24" fill="none" xmlns="http://www.w3.org/2000/svg">
<path d="M11.0971 21.586L10.5441 19.342L10.2691 17.687L10.2241 16.458L12.7271 16.325H14.2841L14.1421 19.13L14.3821 21.293L14.3551 21.694L12.3251 21.854L11.0961 21.587L11.0971 21.586Z" fill="white"/>
<path d="M15.557 18.541L16.599 18.247L18.575 18.14L18.869 17.232L18.335 15.656L17.721 15.576L16.866 15.843L16.046 16.243L15.611 16.163L15.272 16.296L15.557 18.541Z" fill="white"/>
<path d="M14.4891 16.111L13.9011 14.615L13.2871 13.734C13.2871 13.734 13.4201 13.36 13.6071 13.36C13.7941 13.36 14.2211 13.36 14.2211 13.36L14.8091 13.574L14.7561 14.562L14.4891 16.111Z" fill="white"/>
<path d="M11.3381 12.078L10.5981 11.998L9.90405 11.784V12.024L10.2431 12.398L11.3111 12.879L11.3381 12.078Z" fill="white"/>
<path d="M12.414 4.80601C11.686 4.63601 11.324 5.11101 11.104 5.60201C10.907 5.55401 10.985 5.28601 11.035 5.15001C11.165 4.79201 11.69 4.31501 12.119 4.37901C12.304 4.40701 12.554 4.57601 12.414 4.80501V4.80601Z" fill="#393842"/>
<path d="M15.9611 5.635C15.9721 5.635 15.9841 5.636 15.9961 5.636C16.1611 5.978 16.3031 6.34 16.5101 6.641C16.3711 6.965 15.4571 7.251 15.4721 6.67C15.6701 6.584 16.0111 6.652 16.1861 6.542C16.0851 6.264 15.9391 6.027 15.9621 5.634L15.9611 5.635Z" fill="#393842"/>
<path d="M12.787 5.644C12.943 5.93 12.994 6.231 13.216 6.447C13.316 6.544 13.51 6.663 13.414 6.934C13.391 6.998 13.227 7.14 13.132 7.168C12.785 7.27 11.977 7.189 12.251 6.757C12.538 6.77 12.923 6.943 13.138 6.735C12.973 6.472 12.68 5.951 12.788 5.644H12.787Z" fill="#393842"/>
<path d="M15.8311 8.552C15.3091 8.887 14.7261 9.252 13.8711 9.168C13.6881 9.009 13.6181 8.655 13.7961 8.422C13.8881 8.581 13.8301 8.873 14.0881 8.917C14.5741 9 15.1391 8.62 15.4881 8.487C15.7051 8.122 15.4691 7.988 15.2741 7.753C14.8751 7.272 14.3391 6.675 14.3581 5.954C14.5191 5.837 14.5331 6.133 14.5571 6.187C14.7661 6.675 15.2901 7.299 15.6731 7.717C15.7671 7.82 15.9221 7.919 15.9391 7.987C15.9891 8.185 15.8101 8.422 15.8311 8.553V8.552Z" fill="#393842"/>
<path d="M8.94598 8.198C8.78198 8.105 8.74298 7.693 8.55098 7.681C8.27598 7.664 8.32598 8.215 8.32798 8.537C8.13898 8.365 8.10598 7.837 8.24498 7.566C8.08698 7.488 8.01598 7.652 7.92798 7.709C8.04098 6.889 9.12698 7.329 8.94598 8.198Z" fill="#393842"/>
<path d="M16.1629 8.89301C15.9199 9.35601 15.5759 9.86501 14.8629 9.88001C14.8479 9.73101 14.8369 9.50301 14.8639 9.41301C15.4089 9.36101 15.7459 9.08301 16.1629 8.89301Z" fill="#393842"/>
<path d="M12.7461 9.19299C13.2011 9.43199 14.0371 9.45799 14.6551 9.43999C14.6881 9.57499 14.6871 9.74299 14.6891 9.90799C13.8941 9.94799 12.9541 9.75099 12.7461 9.19299Z" fill="#393842"/>
<path d="M12.6591 9.63901C12.9741 10.429 14.0551 10.338 14.9671 10.316C14.9271 10.419 14.8401 10.54 14.7321 10.584C14.4401 10.703 13.6341 10.793 13.2281 10.578C12.9711 10.441 12.8051 10.132 12.6641 9.95101C12.5961 9.86401 12.2571 9.64001 12.6591 9.64001V9.63901Z" fill="#393842"/>
<path d="M17.7801 16.269C17.3671 16.352 17.0761 16.753 16.6731 16.728C16.8951 16.416 17.2831 16.284 17.7801 16.269Z" fill="#393842"/>
<path d="M17.9619 16.916C17.6249 16.952 17.2289 17.006 16.8879 16.978C17.0499 16.731 17.6729 16.816 17.9619 16.916Z" fill="#393842"/>
<path d="M18.0791 17.474C17.7001 17.482 17.2301 17.475 16.8701 17.444C17.0831 17.215 17.8341 17.359 18.0791 17.474Z" fill="#393842"/>
<path d="M14.628 19.069C14.61 19.491 14.669 20.168 14.689 20.61C14.969 20.61 15.09 20.549 15.299 20.478C15.323 19.957 15.134 19.475 15.08 19C14.969 18.97 14.766 19.078 14.628 19.069ZM10.26 16.669C10.445 18.369 10.713 19.799 11.204 21.305C12.295 21.636 13.609 21.665 14.573 21.366C14.396 20.516 14.473 19.481 14.37 18.575C14.292 17.893 14.332 17.207 14.225 16.512C13.057 16.269 11.406 16.455 10.26 16.67V16.669ZM14.502 16.522C14.492 17.252 14.535 17.973 14.59 18.704C14.87 18.662 15.061 18.634 15.321 18.577C15.236 17.873 15.247 17.081 15.074 16.458C14.875 16.46 14.699 16.456 14.501 16.522H14.502ZM15.924 16.405C15.791 16.374 15.636 16.404 15.509 16.406C15.569 17.001 15.714 17.658 15.765 18.283C15.965 18.289 16.072 18.195 16.237 18.163C16.246 17.614 16.189 16.859 15.925 16.405H15.924ZM18.078 18.373C18.495 18.272 18.757 17.761 18.641 17.236C18.563 16.883 18.423 16.22 18.274 15.994C18.164 15.827 17.865 15.609 17.626 15.762C17.238 16.011 16.554 16.083 16.271 16.384C16.413 16.857 16.457 17.506 16.516 18.105C17.001 18.135 17.598 17.972 18.001 18.145C17.719 18.236 17.354 18.237 17.111 18.37C17.31 18.466 17.775 18.447 18.079 18.373H18.078ZM14.2 15.836C13.907 15.147 13.641 14.433 13.204 13.878C12.78 14.162 12.314 14.429 12.195 14.945C12.802 15.288 13.509 15.627 14.201 15.835L14.2 15.836ZM14.922 13.703C14.894 14.392 14.816 15.296 14.632 15.836C15.07 15.278 15.423 14.629 15.792 13.996C15.635 13.743 15.306 13.523 14.921 13.703H14.922ZM14.104 13.412C13.938 13.394 13.797 13.603 13.581 13.513C13.532 13.568 13.487 13.627 13.436 13.68C13.913 14.254 14.129 15.069 14.497 15.744C14.694 15.096 14.672 14.385 14.715 13.678C14.444 13.695 14.293 13.433 14.103 13.412H14.104ZM13.578 12.718C13.56 12.915 13.606 12.979 13.646 13.205C14.293 13.407 14.18 12.318 13.578 12.718ZM12.86 12.482C12.581 12.33 12.163 12.164 11.803 12.095C11.357 12.01 11.399 12.703 11.418 13.117C11.433 13.445 11.603 13.791 11.677 14.009C11.712 14.111 11.72 14.219 11.807 14.239C11.961 14.275 12.467 14.072 12.612 13.993C12.917 13.826 13.154 13.562 13.414 13.385C13.417 13.299 13.421 13.212 13.424 13.126C13.268 13.048 13.088 12.993 12.859 12.983C13.014 12.905 13.243 12.906 13.384 12.813C13.385 12.778 13.387 12.744 13.388 12.71C13.13 12.69 13.031 12.575 12.861 12.482H12.86ZM10.199 11.999C9.96804 12.234 10.848 12.554 11.128 12.571C11.126 12.422 11.213 12.282 11.195 12.176C10.862 12.118 10.425 12.156 10.199 11.999ZM13.048 12.109C13.047 12.132 13.017 12.124 13.012 12.142C13.309 12.375 13.53 12.423 13.935 12.403C14.118 12.27 14.28 12.116 14.47 11.991C14.032 12.03 13.481 12.302 13.048 12.109ZM15.662 12.902C15.65 12.641 15.581 12.105 15.42 12.011C15.082 11.814 14.48 12.41 14.225 12.501C14.253 12.581 14.298 12.644 14.302 12.746C14.453 12.709 14.636 12.734 14.767 12.798C14.616 12.815 14.449 12.814 14.349 12.886C14.312 12.992 14.358 13.136 14.334 13.283C14.692 13.384 15.102 13.438 15.555 13.451C15.643 13.336 15.673 13.118 15.663 12.902H15.662ZM9.81004 12.226C9.73704 12.174 9.24604 11.535 9.17904 11.562C8.29004 11.913 7.45904 12.519 6.71604 13.092C7.42404 14.611 7.71004 16.473 7.76004 18.267C8.57104 18.646 9.28404 19.193 10.384 19.25C10.257 18.349 10.14 17.545 10.068 16.696C9.79104 16.579 9.39504 16.701 9.13604 16.66C9.13404 16.348 9.53104 16.523 9.56404 16.314C9.58904 16.155 9.34504 16.143 9.42504 15.894C9.62704 15.968 9.73404 16.13 9.94904 16.191C10.146 15.76 9.94604 14.996 9.97504 14.636C9.98004 14.568 10.009 14.261 10.16 14.315C10.294 14.363 10.152 15.132 10.167 15.474C10.18 15.788 10.129 16.093 10.256 16.29C11.32 16.145 12.401 16.052 13.551 16.02C13.298 15.911 12.997 15.809 12.667 15.623C12.488 15.522 11.925 15.313 11.873 15.143C11.791 14.872 12.089 14.728 12.14 14.496C11.603 14.789 11.498 14.215 11.371 13.809C11.256 13.441 11.19 13.166 11.162 12.954C10.699 12.734 10.205 12.51 9.80704 12.227L9.81004 12.226ZM15.193 11.639C15.934 11.28 16.067 12.981 15.777 13.529C15.822 13.692 15.976 13.755 16.039 13.902C15.626 14.642 15.167 15.333 14.745 16.065C15.059 15.87 15.507 16.03 15.876 15.884C16.011 15.831 16.109 15.522 16.211 15.275C16.492 14.595 16.787 13.738 16.918 13.089C16.948 12.941 17.028 12.619 17.01 12.488C16.978 12.252 16.658 12.078 16.496 11.932C16.196 11.663 16.008 11.426 15.696 11.175C15.569 11.362 15.298 11.488 15.194 11.64L15.193 11.639ZM8.11604 5.072C7.76304 5.46 7.83704 6.18799 7.88004 6.705C8.51804 6.304 9.36404 6.737 9.35604 7.419C9.66104 7.411 9.47004 7.03899 9.41504 6.799C9.23504 6.016 9.71804 5.165 9.43704 4.448C8.89104 4.489 8.44204 4.713 8.11604 5.071V5.072ZM10.641 2.818C9.84204 3.044 8.81804 3.625 8.49004 4.343C8.74404 4.306 8.92104 4.178 9.17104 4.162C9.26604 4.156 9.39004 4.202 9.49904 4.175C9.71604 4.121 9.89904 3.635 10.063 3.453C10.223 3.276 10.414 3.201 10.546 3.039C10.63 2.998 10.755 3.001 10.76 2.874C10.723 2.835 10.685 2.805 10.641 2.818ZM14.8 3.031C13.971 2.563 12.567 2.211 11.685 2.651C10.973 3.006 10.011 3.593 9.68304 4.337C9.98904 5.055 9.59204 5.713 9.56704 6.442C9.55404 6.83 9.75004 7.168 9.76504 7.591C9.66004 7.764 9.34004 7.785 9.11804 7.77299C9.04304 7.39899 8.91304 6.98 8.52804 6.937C7.98404 6.877 7.58604 7.32799 7.56104 7.799C7.53204 8.35299 7.98604 9.27 8.63004 9.206C8.87904 9.181 8.94004 8.932 9.21104 8.935C9.35804 9.228 8.98404 9.31999 8.94604 9.52999C8.93604 9.58399 8.97704 9.796 9.00104 9.895C9.11804 10.378 9.37904 11.004 9.63604 11.372C9.96204 11.839 10.602 11.909 11.29 11.955C11.413 11.69 11.866 11.712 12.161 11.781C11.807 11.641 11.478 11.301 11.206 11C10.893 10.655 10.576 10.285 10.56 9.83399C11.152 10.655 11.641 11.372 12.717 11.733C13.531 12.006 14.482 11.608 15.108 11.169C15.368 10.986 15.523 10.697 15.707 10.431C16.397 9.43799 16.72 8.02 16.649 6.646C16.62 6.079 16.621 5.515 16.431 5.133C16.232 4.734 15.56 4.378 15.167 4.738C15.094 4.35 15.494 4.111 15.964 4.25C15.629 3.818 15.277 3.298 14.801 3.029L14.8 3.031ZM16.345 15.816C16.993 15.494 18.204 14.949 18.61 15.817C18.76 16.137 18.936 16.678 19.013 17.008C19.123 17.474 18.894 18.454 18.415 18.61C17.992 18.748 17.498 18.74 16.989 18.637C16.929 18.587 16.862 18.5 16.815 18.409C16.451 18.395 16.11 18.429 15.823 18.578C15.85 18.847 15.668 18.89 15.498 18.946C15.371 19.448 15.751 20.103 15.66 20.56C15.595 20.886 15.194 20.936 14.9 20.997C14.89 21.178 14.913 21.329 14.933 21.482C14.866 21.73 14.563 21.872 14.277 21.906C13.335 22.019 11.904 22.07 10.998 21.744C10.745 21.124 10.546 20.369 10.335 19.661C9.45104 19.755 8.73604 19.28 8.06204 18.968C7.82904 18.86 7.50604 18.8 7.41904 18.615C7.33404 18.435 7.36904 18.091 7.34804 17.765C7.29504 16.934 7.24904 16.132 7.02904 15.28C6.93004 14.898 6.75904 14.561 6.63904 14.193C6.52804 13.852 6.33504 13.43 6.28404 13.09C6.20904 12.586 6.68404 12.558 6.98704 12.339C7.45604 12.001 7.82504 11.814 8.33304 11.509C8.48404 11.419 8.93804 11.19 8.98904 11.085C9.09204 10.876 8.81304 10.582 8.73804 10.418C8.62004 10.159 8.55904 9.939 8.54204 9.684C8.11604 9.617 7.79204 9.363 7.59704 9.07699C7.27404 8.60399 7.05004 7.72699 7.33004 7.061C7.35204 7.009 7.46104 6.90499 7.47704 6.825C7.50904 6.666 7.41704 6.455 7.41104 6.286C7.38204 5.42 7.55804 4.674 8.14104 4.412C8.37804 3.469 9.22504 3.156 10.023 2.687C10.321 2.512 10.65 2.4 10.99 2.275C12.208 1.827 14.078 1.911 15.089 2.676C15.518 3 16.203 3.685 16.448 4.181C17.096 5.49 17.05 7.678 16.597 9.27C16.536 9.484 16.448 9.798 16.325 10.055C16.239 10.234 15.972 10.593 16.004 10.751C16.037 10.915 16.613 11.352 16.737 11.471C16.959 11.685 17.382 11.97 17.416 12.241C17.453 12.529 17.289 12.923 17.206 13.201C16.929 14.129 16.658 14.986 16.344 15.813L16.345 15.816Z" fill="#393842"/>
</svg>
