<svg width="24" height="24" viewBox="0 0 24 24" fill="none" xmlns="http://www.w3.org/2000/svg">
<path d="M8.21308 22.155C7.72408 22.155 7.26608 21.929 6.95208 21.526L2.21208 15.47C1.90108 15.063 1.77808 14.551 1.90108 14.048L3.59308 6.485C3.70208 5.983 4.02708 5.579 4.47508 5.357L11.3301 1.987C11.5451 1.874 11.7911 1.82 12.0341 1.82C12.2771 1.82 12.5231 1.875 12.7381 1.987L19.5931 5.343C20.0411 5.565 20.3651 5.968 20.4711 6.471L22.1661 14.034C22.2751 14.533 22.1661 15.049 21.8551 15.452L17.1121 21.511C16.8011 21.901 16.3401 22.14 15.8541 22.14L8.21308 22.155Z" fill="#393842"/>
<path d="M12.0201 2.17C12.2081 2.17 12.3991 2.211 12.5741 2.293L19.4291 5.649C19.7811 5.83 20.0511 6.165 20.1331 6.555L21.8281 14.118C21.9201 14.521 21.8281 14.942 21.5681 15.259L16.8281 21.318C16.5851 21.639 16.2061 21.82 15.8131 21.82H8.21306C7.82006 21.82 7.44106 21.639 7.19806 21.318L2.45506 15.259C2.21206 14.941 2.11706 14.521 2.19906 14.118L3.89406 6.555C3.98606 6.152 4.24606 5.817 4.59806 5.649L11.4501 2.279C11.6281 2.211 11.8291 2.17 12.0211 2.17H12.0201ZM12.0201 1.514C11.7361 1.514 11.4491 1.582 11.1791 1.709L4.32406 5.079C3.78406 5.346 3.40506 5.831 3.26806 6.432L1.57606 13.995C1.43906 14.593 1.57606 15.205 1.95506 15.693L6.69506 21.749C7.06106 22.224 7.61806 22.487 8.19906 22.487H15.7991C16.3801 22.487 16.9371 22.224 17.3031 21.749L22.0431 15.693C22.4221 15.218 22.5591 14.593 22.4221 13.995L20.7301 6.432C20.5931 5.831 20.2141 5.345 19.6711 5.079L12.8461 1.709C12.5861 1.583 12.3031 1.514 12.0191 1.514H12.0201Z" fill="white"/>
<path d="M18.8889 13.519C18.8749 13.519 18.8749 13.519 18.8889 13.519H18.8749C18.8609 13.519 18.8479 13.519 18.8479 13.505C18.8209 13.505 18.7929 13.491 18.7659 13.491C18.6699 13.477 18.5879 13.464 18.5099 13.464C18.4689 13.464 18.4279 13.464 18.3729 13.45H18.3589C18.0749 13.419 17.8429 13.392 17.6279 13.324C17.5319 13.283 17.5049 13.225 17.4779 13.17C17.4779 13.156 17.4639 13.156 17.4639 13.143L17.2899 13.088C17.3719 12.446 17.3449 11.779 17.1939 11.123C17.0429 10.467 16.7869 9.855 16.4349 9.298L16.5719 9.172V9.145C16.5719 9.077 16.5859 9.008 16.6399 8.937C16.8009 8.783 17.0059 8.66 17.2479 8.506C17.2889 8.479 17.3299 8.465 17.3709 8.438C17.4499 8.394 17.5179 8.353 17.5999 8.298C17.6139 8.284 17.6409 8.271 17.6679 8.24C17.6819 8.226 17.6949 8.226 17.6949 8.213C17.8829 8.046 17.9239 7.769 17.7909 7.588C17.7229 7.489 17.5999 7.434 17.4769 7.434C17.3709 7.434 17.2749 7.475 17.1799 7.547C17.1659 7.561 17.1659 7.561 17.1529 7.574C17.1259 7.588 17.1119 7.615 17.0849 7.629C17.0199 7.701 16.9649 7.755 16.9109 7.824C16.8839 7.851 16.8559 7.896 16.8149 7.923C16.6269 8.131 16.4489 8.299 16.2749 8.422C16.2339 8.453 16.1929 8.466 16.1519 8.466C16.1249 8.466 16.0969 8.466 16.0699 8.452H16.0429L15.8819 8.561C15.7039 8.366 15.5159 8.199 15.3249 8.031C14.5119 7.378 13.5239 6.975 12.4949 6.876L12.4809 6.695C12.4669 6.681 12.4669 6.681 12.4539 6.668C12.4129 6.627 12.3579 6.583 12.3449 6.487C12.3309 6.265 12.3589 6.012 12.3859 5.735V5.721C12.3859 5.68 12.3999 5.622 12.4129 5.581C12.4269 5.499 12.4399 5.414 12.4539 5.318V5.192C12.4539 4.943 12.2629 4.731 12.0339 4.731C11.9249 4.731 11.8149 4.789 11.7369 4.871C11.6549 4.956 11.6139 5.066 11.6139 5.192V5.305C11.6139 5.401 11.6279 5.486 11.6549 5.568C11.6689 5.609 11.6689 5.65 11.6819 5.708V5.722C11.7089 5.999 11.7499 6.252 11.7229 6.474C11.7089 6.57 11.6549 6.614 11.6139 6.655C11.5999 6.669 11.5999 6.669 11.5869 6.682L11.5729 6.863C11.3299 6.89 11.0839 6.918 10.8419 6.976C9.79992 7.212 8.87692 7.755 8.15892 8.534L8.02592 8.438H7.99892C7.97192 8.438 7.94392 8.452 7.91692 8.452C7.87592 8.452 7.83492 8.438 7.79392 8.408C7.61992 8.285 7.44192 8.104 7.25392 7.895C7.22692 7.864 7.19892 7.823 7.15792 7.796C7.10292 7.728 7.04892 7.67 6.97992 7.601C6.96592 7.587 6.93892 7.574 6.91492 7.546C6.90092 7.532 6.88792 7.532 6.88792 7.519C6.80592 7.447 6.69692 7.406 6.58692 7.406C6.46692 7.406 6.34392 7.461 6.27592 7.56C6.14292 7.741 6.17992 8.018 6.37192 8.185C6.38592 8.185 6.38592 8.199 6.39892 8.199C6.42592 8.213 6.43992 8.24 6.46692 8.257C6.54592 8.312 6.61392 8.353 6.69592 8.394C6.73692 8.408 6.77792 8.438 6.81892 8.466C7.06192 8.616 7.26692 8.743 7.42692 8.897C7.49492 8.965 7.49492 9.037 7.49492 9.105V9.132L7.63192 9.258C7.60492 9.299 7.57692 9.326 7.56392 9.371C6.88692 10.468 6.62792 11.763 6.80492 13.045L6.62692 13.103C6.62692 13.117 6.61292 13.117 6.61292 13.13C6.58592 13.185 6.54492 13.239 6.46592 13.284C6.26092 13.352 6.01792 13.38 5.73492 13.407H5.72092C5.67992 13.407 5.62492 13.407 5.58392 13.421C5.50192 13.421 5.41992 13.438 5.32792 13.452C5.30092 13.452 5.27292 13.466 5.24592 13.466C5.23192 13.466 5.21892 13.466 5.20492 13.48C4.96192 13.535 4.81192 13.77 4.85292 13.996C4.89392 14.191 5.06792 14.314 5.28692 14.314C5.32792 14.314 5.35492 14.314 5.39592 14.3C5.40992 14.3 5.41992 14.3 5.41992 14.286C5.44692 14.286 5.47492 14.272 5.50192 14.272C5.59792 14.245 5.66592 14.217 5.74792 14.176C5.78892 14.159 5.82692 14.132 5.86792 14.118H5.88192C6.14192 14.022 6.37092 13.937 6.58592 13.91H6.61292C6.69492 13.91 6.74992 13.951 6.79092 13.978C6.80492 13.978 6.80492 13.995 6.81792 13.995L7.00592 13.964C7.33092 14.996 7.95592 15.915 8.78292 16.585C8.97092 16.735 9.16192 16.862 9.36392 16.988L9.28192 17.169C9.28192 17.183 9.29592 17.183 9.29592 17.196C9.32292 17.251 9.35092 17.322 9.32292 17.418C9.24092 17.626 9.12092 17.835 8.97092 18.074V18.088C8.94392 18.129 8.91592 18.156 8.88892 18.197C8.83392 18.269 8.79292 18.337 8.74192 18.419C8.72792 18.436 8.71492 18.463 8.70092 18.491C8.70092 18.505 8.68692 18.518 8.68692 18.518C8.57792 18.754 8.65992 19.02 8.86092 19.116C8.91592 19.143 8.96992 19.157 9.02492 19.157C9.18592 19.157 9.34992 19.048 9.43192 18.894C9.43192 18.88 9.44592 18.867 9.44592 18.867C9.45992 18.84 9.47292 18.812 9.48692 18.799C9.52792 18.7 9.54192 18.632 9.56592 18.546C9.57992 18.505 9.59292 18.464 9.60692 18.42C9.70292 18.143 9.77092 17.921 9.89392 17.726C9.94492 17.641 10.0139 17.627 10.0679 17.6C10.0819 17.6 10.0819 17.6 10.0949 17.586L10.1909 17.405C10.7859 17.641 11.4349 17.767 12.0879 17.767C12.4809 17.767 12.8879 17.726 13.2669 17.627C13.5099 17.572 13.7389 17.504 13.9709 17.419L14.0499 17.573C14.0639 17.573 14.0639 17.573 14.0769 17.587C14.1449 17.601 14.1999 17.628 14.2549 17.713C14.3639 17.908 14.4429 18.144 14.5389 18.407V18.421C14.5529 18.465 14.5659 18.506 14.5799 18.547C14.6069 18.632 14.6209 18.714 14.6619 18.8C14.6759 18.827 14.6889 18.841 14.7029 18.868C14.7029 18.882 14.7169 18.895 14.7169 18.895C14.7959 19.062 14.9599 19.158 15.1239 19.158C15.1749 19.158 15.2299 19.144 15.2849 19.117C15.3809 19.062 15.4629 18.98 15.4899 18.868C15.5169 18.756 15.5169 18.632 15.4629 18.519C15.4629 18.505 15.4489 18.505 15.4489 18.492C15.4349 18.465 15.4219 18.437 15.4079 18.42C15.3669 18.338 15.3119 18.27 15.2579 18.198C15.2309 18.157 15.2029 18.13 15.1759 18.089V18.075C15.0289 17.836 14.8919 17.627 14.8239 17.419C14.7969 17.323 14.8239 17.265 14.8379 17.197C14.8379 17.183 14.8519 17.183 14.8519 17.17L14.7869 17.003C15.5049 16.569 16.1129 15.957 16.5739 15.205C16.8169 14.815 17.0079 14.385 17.1409 13.951L17.3049 13.978C17.3189 13.978 17.3189 13.964 17.3319 13.964C17.3869 13.937 17.4239 13.896 17.5059 13.896H17.5329C17.7519 13.923 17.9809 14.009 18.2369 14.104H18.2509C18.2919 14.118 18.3329 14.145 18.3739 14.159C18.4559 14.203 18.5239 14.231 18.6169 14.258C18.6439 14.258 18.6719 14.272 18.6989 14.272C18.7129 14.272 18.7259 14.272 18.7399 14.286C18.7809 14.3 18.8079 14.3 18.8489 14.3C19.0509 14.3 19.2279 14.16 19.2829 13.979C19.2829 13.815 19.1329 13.589 18.8899 13.521L18.8889 13.519ZM12.6149 12.836L12.0199 13.13L11.4219 12.836L11.2749 12.183L11.6819 11.653H12.3449L12.7519 12.183L12.6149 12.836ZM16.1519 11.387C16.2609 11.862 16.2889 12.337 16.2479 12.795L14.1739 12.183C13.9859 12.125 13.8769 11.93 13.9179 11.735C13.9319 11.68 13.9589 11.626 13.9999 11.585L15.6369 10.064C15.8689 10.454 16.0439 10.901 16.1529 11.387H16.1519ZM14.9869 9.23L13.2129 10.525C13.0629 10.621 12.8609 10.593 12.7379 10.44C12.6969 10.399 12.6829 10.344 12.6699 10.29L12.5469 8.017C13.4829 8.13 14.3379 8.56 14.9869 9.23ZM11.0569 8.089C11.2069 8.058 11.3439 8.031 11.4909 8.004L11.3709 10.232C11.3569 10.427 11.2069 10.594 11.0049 10.594C10.9499 10.594 10.8819 10.58 10.8409 10.553L9.03992 9.23C9.59392 8.659 10.2869 8.27 11.0559 8.089H11.0569ZM8.39092 10.064L10.0009 11.54C10.1509 11.666 10.1649 11.902 10.0419 12.056C10.0009 12.111 9.94592 12.155 9.88092 12.169L7.77892 12.794C7.69692 11.847 7.90192 10.887 8.39092 10.063V10.064ZM8.02592 13.84L10.1789 13.464C10.3529 13.45 10.5169 13.573 10.5579 13.754C10.5719 13.839 10.5719 13.908 10.5439 13.976L9.71692 16.026C8.95792 15.524 8.34992 14.758 8.02492 13.839L8.02592 13.84ZM12.9669 16.612C12.6559 16.68 12.3449 16.721 12.0199 16.721C11.5449 16.721 11.0839 16.639 10.6529 16.499L11.7229 14.507C11.8289 14.384 12.0069 14.326 12.1569 14.411C12.2219 14.452 12.2769 14.507 12.3179 14.565L13.3599 16.499C13.2399 16.54 13.1039 16.567 12.9669 16.612ZM15.6089 14.674C15.2709 15.231 14.8229 15.679 14.3099 16.027L13.4559 13.922C13.4149 13.755 13.4829 13.573 13.6469 13.491C13.6979 13.464 13.7669 13.45 13.8349 13.45L16.0019 13.826C15.9199 14.13 15.7869 14.41 15.6089 14.674Z" fill="white"/>
</svg>
