<svg width="24" height="24" viewBox="0 0 24 24" fill="none" xmlns="http://www.w3.org/2000/svg">
<path d="M3 2H21C21.7 2 22 2.3 22 3V21C22 21.7 21.7 22 21 22H3C2.3 22 2 21.7 2 21V3C2 2.3 2.3 2 3 2ZM7.75 7.79L6 16.5C6 16.5 5.9 17 6.25 17H7.5C7.5 17 7.83 17.06 8 16.25L9.25 10.32L10.31 16.35C10.31 16.35 10.46 17.01 10.75 17.01H11.75C11.75 17.01 12.25 16.74 12.65 16.01L16 10.26L14.75 16.26C14.75 16.26 14.5 17.02 15.21 17.02L16.25 17.01C16.25 17.01 16.81 17.09 17 16.01L18.48 7.86C18.48 7.86 18.68 7 18 7H16C16 7 15.57 6.92 15.2 7.79C14.84 8.65 12 13.5 12 13.5L11.01 7.67C11.01 7.67 11 7 10.25 7H8.5C7.87 7 7.75 7.78 7.75 7.78V7.79Z" fill="#393842"/>
</svg>
