<svg width="24" height="24" viewBox="0 0 24 24" fill="none" xmlns="http://www.w3.org/2000/svg">
<path d="M20.4209 7V17C19.2189 17.722 18.0169 18.444 16.8149 19.165C15.2329 20.112 13.6499 21.057 12.0679 22H11.9329C10.4669 21.125 8.99988 20.249 7.53388 19.374C6.21488 18.585 4.89588 17.794 3.57788 17V7C3.73088 6.901 3.87588 6.794 4.03088 6.702C6.66488 5.134 9.29888 3.567 11.9329 2H12.0679C13.1739 2.663 14.2789 3.326 15.3849 3.989C17.0619 4.993 18.7409 5.997 20.4209 7ZM5.69088 11.714C5.69088 12.802 5.69788 13.891 5.68588 14.979C5.68588 15.235 5.77288 15.383 5.98688 15.509C7.81188 16.583 9.63388 17.664 11.4509 18.751C11.6209 18.872 11.8459 18.872 12.0159 18.751C13.8229 17.668 15.6329 16.592 17.4449 15.523C17.6939 15.377 17.7909 15.204 17.7889 14.911C17.7789 12.804 17.7789 10.697 17.7889 8.591C17.7889 8.272 17.6949 8.082 17.4209 7.921C15.6219 6.87 13.8289 5.808 12.0429 4.735C11.8189 4.601 11.6439 4.595 11.4169 4.731C9.61588 5.814 7.80588 6.89 5.98888 7.957C5.75588 8.093 5.67888 8.256 5.68488 8.521C5.69688 9.586 5.69088 10.651 5.69088 11.714Z" fill="#393842"/>
</svg>
