<svg width="836" height="836" viewBox="0 0 836 836" fill="none" xmlns="http://www.w3.org/2000/svg">
<rect width="836" height="836" fill="white"/>
<path fill-rule="evenodd" clip-rule="evenodd" d="M690.231 463.896C690.646 461.399 691.027 458.89 691.375 456.371C692.999 444.601 693.88 432.591 693.97 420.391C694.06 408.19 693.355 396.169 691.905 384.376C691.595 381.852 691.25 379.338 690.872 376.835C690.492 374.319 690.078 371.814 689.63 369.32L674.94 371.126L676.798 386.234C678.168 397.375 678.834 408.738 678.749 420.279C678.664 431.819 677.83 443.171 676.296 454.291L674.216 469.369L688.878 471.392C689.362 468.905 689.814 466.406 690.231 463.896ZM467.401 689.63L465.595 674.94L450.487 676.798C439.346 678.168 427.983 678.834 416.442 678.749C404.902 678.664 393.55 677.83 382.43 676.296L367.352 674.216L365.329 688.878C367.816 689.362 370.315 689.814 372.825 690.231C375.322 690.646 377.831 691.027 380.35 691.375C392.12 692.999 404.13 693.88 416.33 693.97C428.531 694.06 440.552 693.355 452.344 691.905C454.869 691.595 457.383 691.25 459.885 690.872C462.402 690.492 464.907 690.078 467.401 689.63ZM325.167 677.823L330.936 664.196L316.918 658.262C295.822 649.331 276.148 637.697 258.327 623.792L246.326 614.428L237.22 626.099C239.133 627.768 241.068 629.412 243.027 631.028C244.983 632.643 246.962 634.231 248.963 635.793C267.821 650.506 288.646 662.823 310.984 672.279C313.318 673.267 315.668 674.224 318.034 675.149C320.396 676.072 322.774 676.964 325.167 677.823ZM207.976 596.421L219.779 587.488L210.594 575.351C196.953 557.326 185.61 537.483 176.99 516.257L171.264 502.154L157.553 507.722C158.377 510.127 159.234 512.518 160.122 514.893C161.012 517.272 161.934 519.636 162.887 521.984C172.014 544.459 184.022 565.464 198.456 584.536C199.988 586.56 201.547 588.562 203.133 590.542C204.72 592.524 206.335 594.484 207.976 596.421ZM147.091 467.401L161.781 465.595L159.923 450.487C158.553 439.346 157.887 427.983 157.972 416.442C158.057 404.902 158.891 393.55 160.425 382.43L162.505 367.352L147.843 365.329C147.359 367.816 146.907 370.315 146.49 372.825C146.075 375.322 145.693 377.831 145.346 380.35C143.722 392.12 142.841 404.13 142.751 416.33C142.661 428.531 143.366 440.552 144.816 452.344C145.126 454.869 145.471 457.383 145.849 459.885C146.229 462.402 146.643 464.907 147.091 467.401ZM158.898 325.167L172.525 330.936L178.459 316.918C187.39 295.822 199.024 276.148 212.929 258.327L222.292 246.326L210.622 237.22C208.953 239.133 207.309 241.068 205.692 243.027C204.078 244.983 202.49 246.962 200.928 248.963C186.215 267.821 173.898 288.646 164.442 310.984C163.454 313.318 162.497 315.668 161.572 318.034C160.649 320.396 159.757 322.774 158.898 325.167ZM240.3 207.976L249.233 219.779L261.37 210.594C279.394 196.953 299.238 185.61 320.464 176.99L334.567 171.264L328.999 157.553C326.594 158.377 324.203 159.234 321.828 160.122C319.449 161.012 317.085 161.934 314.737 162.887C292.262 172.014 271.257 184.022 252.185 198.456C250.161 199.988 248.159 201.547 246.179 203.133C244.197 204.72 242.237 206.335 240.3 207.976ZM369.32 147.091L371.126 161.781L386.234 159.923C397.375 158.553 408.738 157.887 420.279 157.972C431.819 158.057 443.171 158.891 454.291 160.425L469.369 162.505L471.392 147.843C468.905 147.359 466.406 146.907 463.896 146.49C461.399 146.075 458.89 145.693 456.371 145.346C444.601 143.722 432.591 142.841 420.391 142.751C408.19 142.661 396.169 143.366 384.376 144.816C381.852 145.126 379.338 145.471 376.835 145.849C374.319 146.229 371.814 146.643 369.32 147.091ZM511.554 158.898L505.785 172.525L519.803 178.459C540.899 187.39 560.573 199.024 578.394 212.929L590.395 222.292L599.501 210.622C597.588 208.953 595.653 207.309 593.694 205.692C591.738 204.078 589.759 202.49 587.758 200.928C568.9 186.215 548.074 173.898 525.737 164.442C523.403 163.454 521.053 162.497 518.687 161.572C516.325 160.649 513.947 159.757 511.554 158.898ZM628.745 240.3L616.942 249.233L626.127 261.37C639.768 279.394 651.111 299.238 659.731 320.464L665.457 334.567L679.168 328.999C678.344 326.594 677.487 324.203 676.599 321.828C675.709 319.449 674.787 317.085 673.834 314.737C664.707 292.262 652.699 271.257 638.265 252.185C636.733 250.161 635.174 248.159 633.588 246.179C632.001 244.197 630.386 242.237 628.745 240.3Z" fill="#E7E8EC"/>
<g filter="url(#filter0_dd)">
<path d="M664.346 602.746L579.238 517.637C599.668 486.846 611.626 449.979 611.626 410.346C611.626 302.957 524.258 215.589 416.869 215.589C309.48 215.589 222.113 302.957 222.113 410.346C222.113 517.735 309.48 605.102 416.869 605.102C456.502 605.102 493.37 593.144 524.161 572.714L609.25 657.823C616.865 665.438 629.193 665.438 636.788 657.823L664.327 630.284C671.942 622.669 671.961 610.341 664.346 602.746ZM261.064 410.346C261.064 324.439 330.962 254.54 416.869 254.54C502.776 254.54 572.675 324.439 572.675 410.346C572.675 496.253 502.776 566.151 416.869 566.151C330.962 566.151 261.064 496.253 261.064 410.346Z" fill="white"/>
</g>
<path d="M471.187 371.522L459.981 360.316L415.752 404.546L371.522 360.316L360.316 371.522L404.546 415.752L360.316 459.981L371.522 471.187L415.752 426.957L459.981 471.187L471.187 459.981L426.957 415.752L471.187 371.522Z" fill="#FF5630"/>
<path fill-rule="evenodd" clip-rule="evenodd" d="M480.986 371.522L436.757 415.752L480.986 459.981L459.981 480.986L415.752 436.757L371.522 480.986L350.517 459.981L394.746 415.752L350.517 371.522L371.522 350.517L415.752 394.746L459.981 350.517L480.986 371.522ZM415.752 404.546L371.522 360.316L360.316 371.522L404.546 415.752L360.316 459.981L371.522 471.187L415.752 426.957L459.981 471.187L471.187 459.981L426.957 415.752L471.187 371.522L459.981 360.316L415.752 404.546Z" fill="#FF5630"/>
<defs>
<filter id="filter0_dd" x="192.113" y="200.589" width="507.935" height="507.945" filterUnits="userSpaceOnUse" color-interpolation-filters="sRGB">
<feFlood flood-opacity="0" result="BackgroundImageFix"/>
<feColorMatrix in="SourceAlpha" type="matrix" values="0 0 0 0 0 0 0 0 0 0 0 0 0 0 0 0 0 0 127 0"/>
<feOffset/>
<feGaussianBlur stdDeviation="1.5"/>
<feColorMatrix type="matrix" values="0 0 0 0 0.0352941 0 0 0 0 0.117647 0 0 0 0 0.258824 0 0 0 0.31 0"/>
<feBlend mode="normal" in2="BackgroundImageFix" result="effect1_dropShadow"/>
<feColorMatrix in="SourceAlpha" type="matrix" values="0 0 0 0 0 0 0 0 0 0 0 0 0 0 0 0 0 0 127 0"/>
<feOffset dy="15"/>
<feGaussianBlur stdDeviation="15"/>
<feColorMatrix type="matrix" values="0 0 0 0 0.0352941 0 0 0 0 0.117647 0 0 0 0 0.258824 0 0 0 0.15 0"/>
<feBlend mode="normal" in2="effect1_dropShadow" result="effect2_dropShadow"/>
<feBlend mode="normal" in="SourceGraphic" in2="effect2_dropShadow" result="shape"/>
</filter>
</defs>
</svg>
