<svg width="24" height="24" viewBox="0 0 24 24" fill="none" xmlns="http://www.w3.org/2000/svg">
<path d="M6.34791 8.117C6.34791 7.159 7.12691 6.382 8.08791 6.382H20.2599C21.2199 6.382 21.9999 7.159 21.9999 8.117V20.265C21.9999 21.223 21.2199 22 20.2599 22H8.08691C7.12691 22 6.34791 21.223 6.34791 20.265V8.117ZM20.2609 16.621C20.2609 15.276 19.5659 14.018 18.4349 13.411C17.8692 13.0749 17.2234 12.8975 16.5654 12.8975C15.9074 12.8975 15.2616 13.0749 14.6959 13.411C14.0062 13.8204 13.469 14.4437 13.1658 15.1862C12.8626 15.9287 12.8099 16.7499 13.0159 17.525C13.2231 18.3007 13.6775 18.9877 14.3101 19.4821C14.9427 19.9765 15.7191 20.2513 16.5219 20.265C18.6089 20.265 20.2619 18.616 20.2619 16.621H20.2609ZM6.34791 4.213C6.33583 4.78892 6.09548 5.33645 5.67971 5.73515C5.26394 6.13385 4.70682 6.35107 4.13091 6.339C3.84566 6.33367 3.56426 6.27219 3.30278 6.15808C3.04129 6.04397 2.80485 5.87947 2.60696 5.67396C2.40907 5.46845 2.25361 5.22597 2.14944 4.96037C2.04528 4.69477 1.99447 4.41125 1.99991 4.126C2.01198 3.55009 2.25234 3.00256 2.6681 2.60386C3.08387 2.20515 3.64099 1.98794 4.21691 2C4.79281 2.01104 5.34076 2.25038 5.7402 2.6654C6.13965 3.08041 6.35788 3.63709 6.34691 4.213H6.34791Z" fill="#393842"/>
</svg>
