<svg width="24" height="24" viewBox="0 0 24 24" fill="none" xmlns="http://www.w3.org/2000/svg">
<path d="M17.4501 7.13H19.2501C20.6201 7.13 21.3101 8.13 21.6401 9.53C22.1001 11.43 22.1401 12.84 21.6401 14.33C21.1801 15.79 20.6201 16.74 19.2401 16.74H12.0201V17.42H16.8501V19.24C16.8501 20.6 15.6501 21.28 14.4101 21.64C12.5701 22.14 11.1401 22.1 9.61006 21.64C8.33006 21.28 7.18006 20.51 7.18006 19.24V14.7C7.18006 13.39 8.28006 12.3 9.62006 12.3H14.4101C15.2131 12.2896 15.9803 11.966 16.5482 11.3981C17.1161 10.8303 17.4397 10.063 17.4501 9.26V7.13ZM9.62006 2.23C10.3791 2.09007 11.1484 2.01314 11.9201 2C12.7684 2.00499 13.6147 2.08193 14.4501 2.23C15.5601 2.47 16.8901 3.45 16.8901 4.72V9.22C16.8901 10.52 15.8301 11.62 14.4501 11.62H9.67006C8.88141 11.6271 8.12575 11.9375 7.55976 12.4867C6.99376 13.0359 6.66085 13.7819 6.63006 14.57V16.74H4.93006C3.54006 16.74 2.71006 15.74 2.35006 14.34C1.88006 12.48 1.88006 11.34 2.35006 9.53C2.49001 8.84389 2.86555 8.22835 3.41163 7.79002C3.95771 7.3517 4.63992 7.11821 5.34006 7.13H12.0001V6.49H7.18006V4.68C7.18006 3.32 7.55006 2.58 9.62006 2.23ZM9.30006 3.5C8.84006 3.5 8.37006 3.9 8.37006 4.4C8.37006 4.86 8.84006 5.31 9.30006 5.31C9.41992 5.31266 9.53911 5.29135 9.65062 5.24732C9.76213 5.20328 9.86372 5.13741 9.94942 5.05357C10.0351 4.96973 10.1032 4.86962 10.1497 4.7591C10.1962 4.64858 10.2201 4.52989 10.2201 4.41C10.2201 3.91 9.76006 3.5 9.30006 3.5Z" fill="#393842"/>
</svg>
