<svg width="24" height="24" viewBox="0 0 24 24" fill="none" xmlns="http://www.w3.org/2000/svg">
<path d="M16.7821 17.09C15.2721 17.09 13.9921 15.372 12.9631 13.991L12.6831 13.616C11.5121 12.063 10.1201 10.424 8.19106 9.999C8.59306 8.231 10.1471 6.91 12.0001 6.91C13.8831 6.91 15.4591 8.272 15.8301 10.082C14.9931 10.321 14.3021 10.794 13.7121 11.273L15.0351 12.969C15.8801 12.283 16.4701 12.038 17.1371 12.096C18.3461 12.202 19.3661 13.336 19.3661 14.574C19.3661 15.962 18.2071 17.091 16.7821 17.091V17.09ZM17.9751 10.053C17.5671 7.058 15.0471 4.743 12.0001 4.743C8.95306 4.743 6.43506 7.057 6.02506 10.049C4.00506 10.576 2.50806 12.403 2.50806 14.574C2.50806 16.946 4.38806 19.032 6.69806 19.221C8.28606 19.354 9.47106 18.559 10.4191 17.765L9.07206 16.089C8.29606 16.737 7.65406 17.123 6.86806 17.06C5.65706 16.961 4.63306 15.822 4.63306 14.573C4.63306 13.186 5.79306 12.057 7.21706 12.057C8.70206 12.057 9.94706 13.543 10.9981 14.936L11.2701 15.301C12.5141 16.97 14.2171 19.256 16.7811 19.256C19.3781 19.256 21.4901 17.155 21.4901 14.573C21.4901 12.446 19.9631 10.549 17.9741 10.052L17.9751 10.053Z" fill="#393842"/>
</svg>
