<svg width="24" height="24" viewBox="0 0 24 24" fill="none" xmlns="http://www.w3.org/2000/svg">
<path d="M2 9.185H3.94V9.285C4.4 9.165 4.89 9.125 5.37 9.155C5.72 9.185 6.04 9.355 6.35 9.525C6 9.765 5.64 10.005 5.3 10.265C4.91 9.935 4.4 9.935 3.95 10.075L3.94 10.235V13.985H2V9.185ZM6.35 9.145H8.19C9.1 9.145 10.02 9.255 10.87 9.595C11.41 9.785 11.87 10.135 12.21 10.595C12.44 10.975 12.51 11.455 12.34 11.865C12.09 12.335 11.69 12.715 11.21 12.945C10.35 13.385 9.41 13.615 8.44 13.655V14.585L6.34 14.855V9.145H6.35ZM8.52 9.585V13.105C8.97 13.035 9.4 12.875 9.77 12.625C10.2 12.355 10.57 11.985 10.67 11.525C10.77 11.075 10.51 10.625 10.14 10.305C9.706 9.914 9.149 9.653 8.533 9.586L8.52 9.585ZM12.87 9.145H19.57C20.22 9.145 20.89 9.145 21.53 9.345C21.71 9.405 21.95 9.495 22 9.725V13.985H20.05V9.765C19.94 9.645 19.77 9.655 19.62 9.635C19.22 9.615 18.82 9.635 18.42 9.635V13.985H16.46V10.495C16.46 10.235 16.48 9.985 16.46 9.735C16.27 9.645 16.07 9.635 15.88 9.635H14.83V13.985H12.87V9.145Z" fill="#393842"/>
</svg>
