<svg width="24" height="24" viewBox="0 0 24 24" fill="none" xmlns="http://www.w3.org/2000/svg">
<path d="M21.7331 14.38C21.8531 13.91 21.9331 13.42 21.9831 12.93H10.7531C10.1141 12.927 9.59809 12.409 9.59809 11.77C9.59809 11.129 10.1171 10.61 10.7581 10.61C10.7601 10.61 10.7621 10.61 10.7631 10.61H21.9331C21.8731 10.11 21.7631 9.67 21.6331 9.19H13.1731C12.5321 9.19 12.0131 8.671 12.0131 8.03C12.0131 7.389 12.5321 6.87 13.1731 6.87H20.6131C18.8351 3.933 15.6581 2 12.0291 2C12.0231 2 12.0181 2 12.0121 2H12.0131C6.49209 2.002 2.01709 6.479 2.01709 12C2.01709 17.523 6.49409 22 12.0171 22C15.8121 22 19.1121 19.887 20.8071 16.773L20.8331 16.72H8.37309C7.72309 16.72 7.20309 16.22 7.20309 15.58C7.20309 14.94 7.76309 14.42 8.40309 14.42H21.7431L21.7331 14.38Z" fill="#393842"/>
</svg>
