<svg width="24" height="24" viewBox="0 0 24 24" fill="none" xmlns="http://www.w3.org/2000/svg">
<path d="M11.9999 5.123V10.756L16.9739 7.933V2.3L11.9999 5.123ZM11.9999 5.119L7.02588 2.3V7.938L11.9999 10.757V5.119Z" fill="#393842"/>
<path d="M12.003 5.119L7.02703 2.3L2.05103 5.119L12.003 10.757L21.949 5.119L16.979 2.3L12.003 5.119Z" fill="#393842"/>
<path d="M12.003 10.427L2.05103 4.787V10.427L7.02703 13.247V18.88L12.003 21.7L16.979 18.88V13.247L21.949 10.427V4.787L12.003 10.427Z" fill="#393842"/>
<path d="M12 16.228V21.7L16.974 18.964L12 16.228Z" fill="#393842"/>
<path d="M11.9999 21.7V16.228L7.02588 18.964L11.9999 21.7Z" fill="#393842"/>
<path d="M7.026 7.772L2.052 10.508L7.026 13.244L12 10.508L7.026 7.772Z" fill="#393842"/>
</svg>
