<svg width="24" height="24" viewBox="0 0 24 24" fill="none" xmlns="http://www.w3.org/2000/svg">
<path d="M12.0111 5.25C12 5.25 12 5.25 11.9888 5.25C7.57483 5.25 5 6.24245 5 6.24245V18.2336L12 23.3827L19 18.2336V6.24245C19.0111 6.24245 16.4363 5.25 12.0111 5.25Z" fill="#CED9EA"/>
<path d="M7.28491 5.88059L8.92344 2.41284L9.24669 5.41355L7.28491 5.88059Z" fill="#CED9EA"/>
<path d="M16.715 5.88059L15.0876 2.41284L14.7532 5.41355L16.715 5.88059Z" fill="#CED9EA"/>
<path d="M17.2164 6.74456C17.2164 5.7521 15.9791 3.10167 15.2435 1.68888L14.8868 1L14.1288 6.46433L13.6718 7.23494L13.5603 7.19992C13.2482 7.09483 12.624 6.90802 12.011 6.90802C11.3979 6.90802 10.7737 7.09483 10.4505 7.19992L10.3836 7.22327L10.339 7.23494L10.2944 7.16489L9.88201 6.46433L9.12405 1L8.76736 1.68888C8.03169 3.10167 6.79443 5.7521 6.79443 6.74456V6.79126L7.60813 9.05639V9.09142C7.35176 11.485 7.27373 13.1196 7.40749 13.4582C7.51895 13.7618 7.97596 14.4156 8.36609 14.9411L7.80876 20.2886L7.81991 20.3003L8.14316 20.5455L11.9998 23.4178L15.8565 20.5572L16.1909 20.3003L15.6336 14.9527C16.0237 14.4273 16.4807 13.7735 16.5922 13.4699C16.7259 13.1196 16.6479 11.4967 16.3915 9.10309V9.06806L17.2052 6.79126V6.74456H17.2164ZM16.2243 7.65528C15.3772 6.42931 15.1208 4.4444 15.0986 4.25758L15.2546 3.14837C15.8788 4.46775 16.5364 6.03232 16.581 6.6745L16.2243 7.65528ZM14.675 15.3964L14.6193 15.4665V15.5599C14.6193 15.6183 14.6193 16.9493 14.2737 17.8951C14.0062 18.6657 13.3931 18.7474 13.1479 18.7474C12.5014 18.7474 12.2451 18.1286 12.2339 18.1052V17.8133C12.2339 17.8133 12.2228 17.5565 12.2562 17.4631C12.3231 17.3113 12.4568 17.3463 12.5683 17.5448C12.5683 17.5565 12.5795 17.5681 12.5795 17.5681C12.8916 17.3346 13.1925 17.0544 13.1925 16.8326C13.1925 16.6341 12.9473 16.2838 12.9361 16.2604L13.1033 13.0262L14.1622 14.2755L15.2435 14.6025C15.054 14.906 14.8533 15.1746 14.675 15.3964ZM11.9998 19.4363C11.7435 19.4363 11.5317 19.3546 11.3868 19.1911C11.3756 19.1794 11.3756 19.1794 11.3645 19.1677C11.3756 19.1677 11.3756 19.1677 11.3868 19.1561C11.476 19.121 11.5651 19.0743 11.6431 19.016C11.7658 19.121 11.8995 19.121 11.9998 19.121C12.089 19.121 12.2339 19.121 12.3565 19.016C12.4457 19.0743 12.5349 19.121 12.6352 19.1561C12.4791 19.3429 12.2785 19.4363 11.9998 19.4363ZM10.1272 12.1622C10.2387 12.1505 10.3279 12.0571 10.3502 11.952C10.2721 11.952 10.2053 11.8936 10.1941 11.8119C10.183 11.7535 10.2053 11.7068 10.2387 11.6718C10.2387 11.6718 10.2387 11.6718 10.2275 11.6601H10.6846V11.6835C10.6846 12.0221 10.417 12.3023 10.0826 12.3023C9.74825 12.3023 9.48073 12.0221 9.48073 11.6835V11.6601H9.93774C9.84857 11.7185 9.80398 11.8236 9.81513 11.9287C9.84857 12.0805 9.98232 12.1855 10.1272 12.1622ZM14.2291 10.4341C14.9871 10.4341 14.4186 11.0997 14.3517 11.1697H12.925C13.0587 11.0063 13.5492 10.4341 14.2291 10.4341ZM13.8279 11.8002C13.8167 11.882 13.7498 11.9403 13.6718 11.9403C13.6941 12.0454 13.7833 12.1388 13.8947 12.1505C14.0396 12.1739 14.1734 12.0688 14.1957 11.917C14.2068 11.8119 14.1622 11.7068 14.0731 11.6484H14.5301V11.6718C14.5301 12.0104 14.2626 12.2906 13.9282 12.2906C13.5938 12.2906 13.3263 12.0104 13.3263 11.6718V11.6484H13.7833C13.7833 11.6484 13.7721 11.6484 13.7721 11.6601C13.8056 11.6951 13.8279 11.7535 13.8279 11.8002ZM11.0858 11.1697H9.65908C9.5922 11.0997 9.02373 10.4341 9.78169 10.4341C10.4616 10.4341 10.9521 11.0063 11.0858 11.1697ZM8.76736 3.14837L8.77851 3.21843L8.92341 4.25758C8.90112 4.43272 8.6336 6.42931 7.78647 7.65528L7.42978 6.6745C7.47437 6.044 8.08742 4.57283 8.68933 3.28848C8.72277 3.24178 8.74507 3.19507 8.76736 3.14837ZM9.72595 17.8951C9.39156 16.9376 9.39156 15.6066 9.39156 15.5599V15.4665L9.33583 15.3964C9.16863 15.1746 8.95685 14.906 8.74507 14.6141L9.82627 14.2872L10.8852 13.0379L11.0524 16.2721C11.0412 16.2838 10.796 16.6457 10.796 16.8442C10.796 17.0661 11.1081 17.3463 11.4202 17.5798C11.4202 17.5681 11.4314 17.5565 11.4314 17.5565C11.5428 17.358 11.6766 17.3229 11.7435 17.4747C11.7769 17.5565 11.7658 17.825 11.7658 17.825V18.1169C11.7546 18.1403 11.4871 18.7591 10.8517 18.7591C10.6065 18.7474 9.99347 18.6657 9.72595 17.8951ZM11.9998 20.1485C11.5317 20.1485 10.8406 19.915 10.7737 19.2611C10.796 19.2611 10.8295 19.2611 10.8517 19.2611C10.9075 19.2611 10.9632 19.2611 11.0189 19.2495C11.2307 19.6698 11.6209 19.8099 12.011 19.8099C12.4011 19.8099 12.7912 19.6698 13.003 19.2495C13.0587 19.2495 13.1145 19.2611 13.1702 19.2611C13.1925 19.2611 13.2259 19.2611 13.2482 19.2611C13.1814 19.915 12.4903 20.1485 12.0221 20.1485H11.9998Z" fill="#393A62"/>
</svg>
