<svg width="24" height="24" viewBox="0 0 24 24" fill="none" xmlns="http://www.w3.org/2000/svg">
<path d="M13.3409 15.705L11.5989 5.99499C11.4849 5.30999 11.2559 4.62499 10.8269 3.96699C10.2559 3.05299 9.34192 2.42499 8.31392 2.16899C4.25892 1.19799 1.25992 5.25299 3.03092 8.85099L7.25792 17.905C7.37192 18.191 7.54392 18.476 7.74392 18.733C8.08592 19.19 8.54392 19.533 9.08592 19.704C11.8269 20.561 14.0259 18.133 13.3409 15.705Z" fill="#393842"/>
<path d="M21.2521 9.594C20.8591 8.979 20.3041 8.49801 19.6471 8.20401L19.6241 8.195L9.28506 2.51201C8.99906 2.36901 8.68506 2.22601 8.34206 2.14001C3.91506 1.11301 0.746059 5.96701 3.57406 9.73701C4.00906 10.311 4.58906 10.754 5.26006 11.013L5.28606 11.022L15.7101 15.705C15.9391 15.848 16.1671 15.934 16.4241 16.019C20.4221 17.276 23.4491 13.049 21.2511 9.59301L21.2521 9.594Z" fill="#393842"/>
<path d="M21.2521 9.594C20.7371 8.803 19.9481 8.227 19.0211 8L18.9961 7.995C17.9961 7.767 17.0541 7.852 16.2541 8.195L5.25907 12.336C5.25907 12.336 5.20207 12.365 5.08707 12.45C2.25907 13.564 0.860073 17.248 3.14507 20.304C3.65907 20.99 4.37307 21.504 5.17307 21.732C6.68607 22.189 8.05707 22.018 9.17207 21.418H9.20007L19.9381 15.678L19.9671 15.649C21.8521 14.564 22.7371 11.908 21.2521 9.594Z" fill="#393842"/>
<path d="M16.368 5.681C16.711 4.91 16.682 3.968 16.111 3.111C15.797 2.597 15.283 2.254 14.711 2.111C13.426 1.797 12.341 2.397 11.827 3.311L3.00096 14.021V14.049C1.74396 15.706 1.54396 18.162 3.14396 20.304C3.65796 20.99 4.37196 21.504 5.17196 21.732C8.17096 22.674 10.684 21.018 11.484 18.648L16.367 5.682L16.368 5.681Z" fill="#393842"/>
<path d="M6.1731 5.911H18.6161V18.354H6.1731V5.911Z" fill="#393842" stroke="white" stroke-width="0.5"/>
<path d="M7.354 16.02H12.02V16.798H7.354V16.02ZM8.909 8.589H7.354V7.553H11.616V8.589H10.032V12.708H8.909V8.589ZM11.674 10.145C11.674 8.676 12.768 7.466 14.352 7.466C15.331 7.466 15.908 7.783 16.397 8.273L15.677 9.108C15.274 8.733 14.87 8.532 14.352 8.532C13.488 8.532 12.854 9.252 12.854 10.145V10.116C12.854 11.009 13.459 11.729 14.352 11.729C14.928 11.729 15.302 11.499 15.706 11.124L16.426 11.844C15.908 12.42 15.303 12.765 14.323 12.765C12.797 12.794 11.673 11.613 11.673 10.144L11.674 10.145Z" fill="white"/>
</svg>
