<svg width="24" height="24" viewBox="0 0 24 24" fill="none" xmlns="http://www.w3.org/2000/svg">
<path d="M12 2C14.6522 2 17.1957 3.05357 19.0711 4.92893C20.9464 6.8043 22 9.34784 22 12C22 14.6522 20.9464 17.1957 19.0711 19.0711C17.1957 20.9464 14.6522 22 12 22C9.34784 22 6.8043 20.9464 4.92893 19.0711C3.05357 17.1957 2 14.6522 2 12C2 9.34784 3.05357 6.8043 4.92893 4.92893C6.8043 3.05357 9.34784 2 12 2ZM18.8 15.03C18.73 14.48 18.27 14.1 17.68 14.11C16.9119 14.1697 16.175 14.4396 15.55 14.89C15.35 15.01 15.19 15.09 15.05 15.16C15.0938 14.5749 15.0131 13.9872 14.8132 13.4356C14.6132 12.884 14.2986 12.3811 13.89 11.96C14.429 11.2286 14.7726 10.3718 14.8881 9.47061C15.0035 8.56943 14.8872 7.65367 14.55 6.81C14.5116 6.73485 14.4579 6.66849 14.3925 6.61513C14.3271 6.56177 14.2513 6.52257 14.17 6.5C14.1 6.48 13.97 6.44 13.71 6.51C13.31 5.71 13.18 5.62 13.08 5.55C12.9763 5.48182 12.8579 5.43905 12.7346 5.42515C12.6112 5.41125 12.4863 5.42661 12.37 5.47C12.05 5.59 11.77 5.9 11.51 6.44L11.41 6.68C10.91 6.71 10.15 6.89 9.49 7.6C9.37263 7.69692 9.23643 7.76843 9.09 7.81C8.75 7.93 8.59 8.21 8.41 8.71C8.15 9.41 8.41 10.11 8.68 10.56C8.32 10.88 7.84 11.4 7.58 12C7.33635 12.596 7.22051 13.2364 7.24 13.88C6.97 14.17 6.56 14.71 6.51 15.31C6.45 16.15 6.75 16.72 6.89 16.93L7.02 17.09C6.9863 17.2803 7.01479 17.4765 7.10124 17.6494C7.18768 17.8223 7.3275 17.9627 7.5 18.05C8 18.32 8.72 18.44 9.27 18.17C9.47 18.37 9.82 18.57 10.47 18.57H10.51C10.68 18.57 12.79 18.47 13.41 18.31C13.68 18.25 13.86 18.13 13.99 18.03C14.39 17.9 15.47 17.53 16.49 16.87C17.22 16.4 17.47 16.3 18.02 16.17C18.54 16.04 18.87 15.56 18.8 15.03ZM17.88 15.6C17.265 15.7381 16.6858 16.0038 16.18 16.38C15 17.15 13.69 17.51 13.69 17.51C13.69 17.51 13.59 17.67 13.27 17.75C12.73 17.88 10.69 17.99 10.51 17.99C10.01 17.99 9.71 17.86 9.62 17.66C9.36 17.04 9.99 16.77 9.99 16.77C9.99 16.77 9.85 16.69 9.77 16.61C9.7 16.54 9.62 16.39 9.6 16.44C9.5 16.68 9.45 17.25 9.2 17.51C8.84 17.87 8.17 17.75 7.77 17.54C7.33 17.31 7.8 16.77 7.8 16.77C7.8 16.77 7.56 16.91 7.37 16.62C7.14542 16.2403 7.04736 15.7991 7.09 15.36C7.14 14.73 7.84 14.12 7.84 14.12C7.84 14.12 7.71 13.19 8.12 12.24C8.49 11.37 9.47 10.67 9.47 10.67C9.47 10.67 8.64 9.75 8.95 8.92C9.15 8.38 9.24 8.39 9.3 8.36C9.53 8.27 9.76 8.18 9.92 8C10.75 7.1 11.82 7.27 11.82 7.27C11.82 7.27 12.32 5.75 12.78 6.04C12.92 6.14 13.43 7.28 13.43 7.28C13.43 7.28 13.98 6.96 14.04 7.08C14.37 7.72 14.41 8.95 14.27 9.7C14.02 10.94 13.4 11.6 13.15 12.02C13.1 12.12 13.82 12.42 14.27 13.68C14.69 14.84 14.32 15.81 14.39 15.92L14.4 15.94C14.4 15.94 14.88 15.98 15.85 15.38C16.3856 14.9874 17.0185 14.7487 17.68 14.69C18.36 14.69 18.39 15.47 17.88 15.59V15.6Z" fill="#393842"/>
</svg>
